{
DisplayStrings = (
"agfbchdeq/q.001 p fnijhfy/y.004 ts",
"OA/A.001 IBRVIBE/E.001 RoSCsOP",
abq,
"A/A.002 VWB"
);
date = "2015-10-15 14:20:12 +0000";
designer = "Mirco Monsees";
designerURL = mircomonsees.com;
familyName = "Project Gin";
fontMaster = (
{
alignmentZones = (
"{700, -50}",
"{480, 5}",
"{480, -45}",
"{0, 50}",
"{0, -5}"
);
ascender = 740;
capHeight = 700;
descender = -250;
id = "71FD7A9F-05F5-4D76-8D4F-547475A05E4C";
italicAngle = 6;
userData = {
GSCornerRadius = 19;
};
xHeight = 480;
}
);
glyphs = (
{
glyphname = A;
lastChange = "2015-11-17 13:39:49 +0000";
layers = (
{
background = {
paths = (
{
closed = 1;
nodes = (
"297 609 LINE",
"312 527 OFFCURVE",
"405 90 OFFCURVE",
"409 83 CURVE SMOOTH",
"416 72 OFFCURVE",
"440 60 OFFCURVE",
"463 50 CURVE",
"363 50 LINE",
"359 0 LINE",
"629 0 LINE",
"634 50 LINE",
"591 50 LINE",
"557 50 OFFCURVE",
"509 252 OFFCURVE",
"480 373 CURVE SMOOTH",
"454 480 OFFCURVE",
"412 656 OFFCURVE",
"399 700 CURVE"
);
},
{
closed = 1;
nodes = (
"159 87 OFFCURVE",
"211 198 OFFCURVE",
"229 248 CURVE SMOOTH",
"283 398 OFFCURVE",
"353 611 OFFCURVE",
"397 700 CURVE",
"317 700 LINE",
"211 422 OFFCURVE",
"113 155 OFFCURVE",
"94 108 CURVE SMOOTH",
"75 62 OFFCURVE",
"41 50 OFFCURVE",
"11 50 CURVE",
"6 0 LINE",
"237 0 LINE",
"241 50 LINE",
"234 50 OFFCURVE",
"190 46 OFFCURVE",
"178 62 CURVE SMOOTH"
);
}
);
};
layerId = "71FD7A9F-05F5-4D76-8D4F-547475A05E4C";
name = "Regular Italic";
paths = (
{
closed = 1;
nodes = (
"313 689 LINE",
"315 677 OFFCURVE",
"297 642 OFFCURVE",
"302 613 CURVE",
"326 451 OFFCURVE",
"404 92 OFFCURVE",
"409 83 CURVE SMOOTH",
"415 72 OFFCURVE",
"443 57 OFFCURVE",
"466 50 CURVE",
"363 50 LINE",
"359 0 LINE",
"629 0 LINE",
"634 50 LINE",
"593 50 LINE",
"577 50 OFFCURVE",
"561 84 OFFCURVE",
"550 115 CURVE SMOOTH",
"512 222 OFFCURVE",
"412 656 OFFCURVE",
"400 700 CURVE"
);
},
{
closed = 1;
nodes = (
"182 236 LINE",
"436 235 LINE",
"435 291 LINE",
"181 292 LINE"
);
},
{
closed = 1;
nodes = (
"159 81 OFFCURVE",
"209 198 OFFCURVE",
"227 248 CURVE SMOOTH",
"281 397 OFFCURVE",
"334 551 OFFCURVE",
"392 700 CURVE",
"313 689 LINE",
"207 411 OFFCURVE",
"117 165 OFFCURVE",
"102 125 CURVE SMOOTH",
"77 57 OFFCURVE",
"40 50 OFFCURVE",
"11 50 CURVE",
"5 0 LINE",
"237 0 LINE",
"241 50 LINE",
"234 50 OFFCURVE",
"192 46 OFFCURVE",
"178 61 CURVE SMOOTH"
);
},
{
closed = 1;
nodes = (
"365 569 LINE",
"381 634 OFFCURVE",
"360 650 OFFCURVE",
"394 650 CURVE",
"399 700 LINE",
"239 692 LINE",
"235 650 LINE",
"263 650 OFFCURVE",
"290 630 OFFCURVE",
"275 591 CURVE"
);
}
);
width = 661;
}
);
unicode = 0041;
},
{
glyphname = B;
lastChange = "2015-11-17 13:33:51 +0000";
layers = (
{
background = {
paths = (
{
closed = 1;
nodes = (
"305 696 OFFCURVE",
"231 697 OFFCURVE",
"64 700 CURVE",
"60 657 LINE",
"64 650 OFFCURVE",
"110 649 OFFCURVE",
"111 616 CURVE SMOOTH",
"113 576 OFFCURVE",
"106 484 OFFCURVE",
"100 427 CURVE SMOOTH",
"87 299 OFFCURVE",
"52 94 OFFCURVE",
"54 81 CURVE SMOOTH",
"56 69 OFFCURVE",
"82 64 OFFCURVE",
"118 50 CURVE",
"-3 51 LINE",
"-8 0 LINE",
"180 3 OFFCURVE",
"261 3 OFFCURVE",
"476 -1 CURVE",
"498 163 LINE",
"454 173 LINE",
"450 166 OFFCURVE",
"443 95 OFFCURVE",
"379 74 CURVE SMOOTH",
"340 61 OFFCURVE",
"277 60 OFFCURVE",
"230 61 CURVE",
"201 94 OFFCURVE",
"208 233 OFFCURVE",
"219 336 CURVE",
"276 337 LINE",
"347 337 OFFCURVE",
"332 286 OFFCURVE",
"334 276 CURVE",
"374 279 LINE",
"380 322 OFFCURVE",
"390 405 OFFCURVE",
"373 410 CURVE SMOOTH",
"380 408 OFFCURVE",
"221 405 OFFCURVE",
"227 405 CURVE",
"230 456 OFFCURVE",
"249 593 OFFCURVE",
"261 637 CURVE",
"349 637 LINE",
"443 634 OFFCURVE",
"473 580 OFFCURVE",
"479 527 CURVE",
"527 537 LINE",
"514 699 LINE"
);
}
);
};
layerId = "71FD7A9F-05F5-4D76-8D4F-547475A05E4C";
name = "Regular Italic";
paths = (
{
closed = 1;
nodes = (
"253 342 OFFCURVE",
"334 349 OFFCURVE",
"370 358 CURVE SMOOTH",
"463 382 OFFCURVE",
"526 461 OFFCURVE",
"512 572 CURVE SMOOTH",
"497 695 OFFCURVE",
"365 700 OFFCURVE",
"214 699 CURVE SMOOTH",
"169 699 OFFCURVE",
"112 699 OFFCURVE",
"68 699 CURVE",
"63 650 LINE",
"92 649 OFFCURVE",
"103 642 OFFCURVE",
"110 622 CURVE SMOOTH",
"116 604 OFFCURVE",
"106 466 OFFCURVE",
"88 326 CURVE SMOOTH",
"64 137 OFFCURVE",
"51 91 OFFCURVE",
"55 78 CURVE SMOOTH",
"58 69 OFFCURVE",
"96 57 OFFCURVE",
"120 50 CURVE",
"2 50 LINE",
"-3 0 LINE",
"265 -1 LINE",
"369 0 OFFCURVE",
"508 71 OFFCURVE",
"500 228 CURVE SMOOTH",
"492 380 OFFCURVE",
"332 380 OFFCURVE",
"215 371 CURVE",
"216 342 LINE",
"302 348 OFFCURVE",
"370 303 OFFCURVE",
"372 196 CURVE SMOOTH",
"374 99 OFFCURVE",
"316 59 OFFCURVE",
"258 58 CURVE SMOOTH",
"252 58 OFFCURVE",
"242 58 OFFCURVE",
"232 58 CURVE",
"201 58 OFFCURVE",
"202 214 OFFCURVE",
"217 342 CURVE"
);
},
{
closed = 1;
nodes = (
"295 389 OFFCURVE",
"255 390 OFFCURVE",
"220 399 CURVE",
"227 466 OFFCURVE",
"229 489 OFFCURVE",
"238 556 CURVE",
"248 634 OFFCURVE",
"255 643 OFFCURVE",
"277 644 CURVE SMOOTH",
"398 648 OFFCURVE",
"441 430 OFFCURVE",
"330 394 CURVE"
);
}
);
width = 544;
}
);
leftMetricsKey = I;
rightMetricsKey = O;
unicode = 0042;
},
{
glyphname = C;
lastChange = "2015-11-09 20:29:34 +0000";
layers = (
{
background = {
paths = (
{
closed = 1;
nodes = (
"535 682 OFFCURVE",
"458 727 OFFCURVE",
"297 702 CURVE",
"29 633 OFFCURVE",
"-36 263 OFFCURVE",
"107 88 CURVE SMOOTH",
"174 4 OFFCURVE",
"287 -31 OFFCURVE",
"409 10 CURVE SMOOTH",
"689 102 OFFCURVE",
"703 472 OFFCURVE",
"580 626 CURVE SMOOTH"
);
},
{
closed = 1;
nodes = (
"311 70 OFFCURVE",
"265 102 OFFCURVE",
"231 177 CURVE SMOOTH",
"162 331 OFFCURVE",
"184 551 OFFCURVE",
"319 634 CURVE",
"376 634 OFFCURVE",
"423 610 OFFCURVE",
"461 523 CURVE SMOOTH",
"525 378 OFFCURVE",
"521 157 OFFCURVE",
"379 70 CURVE"
);
}
);
};
layerId = "71FD7A9F-05F5-4D76-8D4F-547475A05E4C";
name = "Regular Italic";
paths = (
{
closed = 1;
nodes = (
"551 79 LINE",
"526 54 OFFCURVE",
"456 -4 OFFCURVE",
"322 -8 CURVE SMOOTH",
"194 -12 OFFCURVE",
"67 68 OFFCURVE",
"37 245 CURVE SMOOTH",
"-2 474 OFFCURVE",
"146 709 OFFCURVE",
"376 709 CURVE SMOOTH",
"470 709 OFFCURVE",
"563 670 OFFCURVE",
"591 632 CURVE",
"577 578 OFFCURVE",
"564 533 OFFCURVE",
"554 482 CURVE",
"513 478 LINE",
"512 485 OFFCURVE",
"492 612 OFFCURVE",
"322 633 CURVE",
"250 610 OFFCURVE",
"166 447 OFFCURVE",
"201 270 CURVE SMOOTH",
"223 158 OFFCURVE",
"288 90 OFFCURVE",
"376 78 CURVE SMOOTH",
"437 70 OFFCURVE",
"508 107 OFFCURVE",
"538 140 CURVE"
);
}
);
width = 600;
}
);
unicode = 0043;
},
{
glyphname = E;
lastChange = "2015-11-15 19:27:41 +0000";
layers = (
{
background = {
paths = (
{
closed = 1;
nodes = (
"267 295 OFFCURVE",
"350 293 OFFCURVE",
"386 304 CURVE SMOOTH",
"479 332 OFFCURVE",
"545 435 OFFCURVE",
"548 518 CURVE SMOOTH",
"556 739 OFFCURVE",
"264 702 OFFCURVE",
"81 699 CURVE",
"76 649 LINE",
"102 648 OFFCURVE",
"115 638 OFFCURVE",
"121 624 CURVE SMOOTH",
"128 606 OFFCURVE",
"119 466 OFFCURVE",
"103 326 CURVE SMOOTH",
"81 137 OFFCURVE",
"66 91 OFFCURVE",
"70 78 CURVE SMOOTH",
"73 69 OFFCURVE",
"108 58 OFFCURVE",
"132 51 CURVE",
"13 51 LINE",
"7 0 LINE",
"127 3 OFFCURVE",
"169 3 OFFCURVE",
"284 0 CURVE",
"287 50 LINE",
"259 50 LINE",
"212 50 OFFCURVE",
"216 171 OFFCURVE",
"231 299 CURVE"
);
},
{
closed = 1;
nodes = (
"326 345 OFFCURVE",
"285 349 OFFCURVE",
"236 367 CURVE",
"243 434 OFFCURVE",
"250 489 OFFCURVE",
"259 556 CURVE",
"271 634 OFFCURVE",
"276 651 OFFCURVE",
"298 651 CURVE SMOOTH",
"420 653 OFFCURVE",
"459 386 OFFCURVE",
"346 345 CURVE"
);
},
{
closed = 1;
nodes = (
"305 298 LINE",
"363 36 OFFCURVE",
"387 35 OFFCURVE",
"390 32 CURVE SMOOTH",
"396 26 OFFCURVE",
"453 -1 OFFCURVE",
"506 -1 CURVE",
"541 7 OFFCURVE",
"568 25 OFFCURVE",
"573 28 CURVE",
"569 74 LINE",
"549 66 OFFCURVE",
"535 65 OFFCURVE",
"524 63 CURVE",
"472 119 OFFCURVE",
"433 226 OFFCURVE",
"408 325 CURVE"
);
}
);
};
guideLines = (
{
angle = 12;
position = "{487, 529}";
},
{
angle = -12;
position = "{468, 175}";
},
{
angle = 84;
position = "{482, 548}";
}
);
layerId = "71FD7A9F-05F5-4D76-8D4F-547475A05E4C";
name = "Regular Italic";
paths = (
{
closed = 1;
nodes = (
"319 696 OFFCURVE",
"248 697 OFFCURVE",
"81 700 CURVE",
"76 649 LINE",
"80 649 OFFCURVE",
"122 648 OFFCURVE",
"123 615 CURVE SMOOTH",
"125 575 OFFCURVE",
"119 484 OFFCURVE",
"114 427 CURVE SMOOTH",
"98 249 OFFCURVE",
"68 94 OFFCURVE",
"69 81 CURVE SMOOTH",
"70 70 OFFCURVE",
"113 57 OFFCURVE",
"132 50 CURVE",
"11 51 LINE",
"6 0 LINE",
"194 3 OFFCURVE",
"275 3 OFFCURVE",
"490 -1 CURVE",
"512 163 LINE",
"468 173 LINE",
"464 166 OFFCURVE",
"457 95 OFFCURVE",
"393 74 CURVE SMOOTH",
"354 61 OFFCURVE",
"287 60 OFFCURVE",
"240 61 CURVE",
"211 94 OFFCURVE",
"222 233 OFFCURVE",
"233 336 CURVE",
"290 337 LINE",
"361 337 OFFCURVE",
"346 286 OFFCURVE",
"348 276 CURVE",
"388 279 LINE",
"394 322 OFFCURVE",
"404 405 OFFCURVE",
"387 410 CURVE SMOOTH",
"394 408 OFFCURVE",
"235 405 OFFCURVE",
"241 405 CURVE",
"244 456 OFFCURVE",
"263 593 OFFCURVE",
"275 637 CURVE",
"363 637 LINE",
"457 634 OFFCURVE",
"487 580 OFFCURVE",
"493 527 CURVE",
"541 537 LINE",
"528 699 LINE"
);
}
);
width = 553;
}
);
leftMetricsKey = I;
unicode = 0045;
},
{
glyphname = F;
lastChange = "2015-11-09 18:16:16 +0000";
layers = (
{
background = {
paths = (
{
closed = 1;
nodes = (
"458 175 LINE",
"455 172 OFFCURVE",
"445 96 OFFCURVE",
"383 74 CURVE SMOOTH",
"339 61 OFFCURVE",
"283 58 OFFCURVE",
"232 61 CURVE",
"214 150 OFFCURVE",
"225 278 OFFCURVE",
"242 433 CURVE SMOOTH",
"250 505 OFFCURVE",
"260 614 OFFCURVE",
"289 637 CURVE SMOOTH",
"306 650 OFFCURVE",
"323 649 OFFCURVE",
"330 650 CURVE",
"335 700 LINE",
"285 698 OFFCURVE",
"233 698 OFFCURVE",
"197 698 CURVE SMOOTH",
"166 698 OFFCURVE",
"117 699 OFFCURVE",
"75 700 CURVE",
"71 655 LINE",
"82 652 OFFCURVE",
"95 650 OFFCURVE",
"110 637 CURVE SMOOTH",
"136 613 OFFCURVE",
"123 510 OFFCURVE",
"113 418 CURVE SMOOTH",
"100 299 OFFCURVE",
"69 102 OFFCURVE",
"71 88 CURVE SMOOTH",
"75 77 OFFCURVE",
"91 68 OFFCURVE",
"127 52 CURVE",
"100 52 OFFCURVE",
"13 55 OFFCURVE",
"8 53 CURVE",
"2 0 LINE",
"109 2 OFFCURVE",
"259 1 OFFCURVE",
"289 0 CURVE SMOOTH",
"397 -2 OFFCURVE",
"480 -5 OFFCURVE",
"479 0 CURVE",
"489 89 OFFCURVE",
"505 155 OFFCURVE",
"504 161 CURVE"
);
}
);
};
guideLines = (
{
angle = -18;
position = "{162, 37}";
},
{
angle = 12;
position = "{382, 263}";
},
{
angle = -85;
position = "{476, 608}";
}
);
layerId = "71FD7A9F-05F5-4D76-8D4F-547475A05E4C";
name = "Regular Italic";
paths = (
{
closed = 1;
nodes = (
"311 696 OFFCURVE",
"246 696 OFFCURVE",
"78 700 CURVE",
"74 657 LINE",
"79 650 OFFCURVE",
"127 649 OFFCURVE",
"128 615 CURVE SMOOTH",
"129 576 OFFCURVE",
"121 484 OFFCURVE",
"115 426 CURVE SMOOTH",
"99 263 OFFCURVE",
"68 96 OFFCURVE",
"67 81 CURVE SMOOTH",
"66 70 OFFCURVE",
"110 58 OFFCURVE",
"133 50 CURVE",
"9 50 LINE",
"4 0 LINE",
"113 3 OFFCURVE",
"184 3 OFFCURVE",
"307 0 CURVE",
"311 50 LINE",
"257 50 LINE",
"207 50 OFFCURVE",
"222 200 OFFCURVE",
"233 327 CURVE",
"284 327 LINE",
"351 327 OFFCURVE",
"339 275 OFFCURVE",
"339 266 CURVE",
"380 269 LINE",
"383 290 OFFCURVE",
"393 394 OFFCURVE",
"381 404 CURVE",
"376 404 OFFCURVE",
"238 400 OFFCURVE",
"242 400 CURVE",
"256 537 OFFCURVE",
"264 592 OFFCURVE",
"277 642 CURVE",
"298 641 OFFCURVE",
"326 641 OFFCURVE",
"357 641 CURVE SMOOTH",
"453 641 OFFCURVE",
"477 588 OFFCURVE",
"482 532 CURVE",
"532 542 LINE",
"520 699 LINE"
);
}
);
width = 523;
}
);
leftMetricsKey = I;
rightMetricsKey = "=E-5";
unicode = 0046;
},
{
glyphname = G;
lastChange = "2015-11-09 18:14:10 +0000";
layers = (
{
background = {
paths = (
{
closed = 1;
nodes = (
"551 76 LINE",
"526 51 OFFCURVE",
"456 -4 OFFCURVE",
"322 -8 CURVE SMOOTH",
"194 -12 OFFCURVE",
"67 68 OFFCURVE",
"37 245 CURVE SMOOTH",
"-2 474 OFFCURVE",
"146 709 OFFCURVE",
"376 709 CURVE SMOOTH",
"470 709 OFFCURVE",
"573 670 OFFCURVE",
"601 632 CURVE",
"587 578 OFFCURVE",
"574 533 OFFCURVE",
"564 482 CURVE",
"521 478 LINE",
"520 485 OFFCURVE",
"502 612 OFFCURVE",
"322 633 CURVE",
"250 610 OFFCURVE",
"166 447 OFFCURVE",
"201 270 CURVE SMOOTH",
"223 158 OFFCURVE",
"288 87 OFFCURVE",
"376 75 CURVE SMOOTH",
"437 67 OFFCURVE",
"511 107 OFFCURVE",
"541 140 CURVE"
);
},
{
closed = 1;
nodes = (
"759 -185 LINE",
"756 -188 OFFCURVE",
"746 -264 OFFCURVE",
"687 -286 CURVE SMOOTH",
"644 -302 OFFCURVE",
"587 -302 OFFCURVE",
"536 -299 CURVE",
"518 -210 OFFCURVE",
"529 -82 OFFCURVE",
"546 73 CURVE SMOOTH",
"554 145 OFFCURVE",
"564 254 OFFCURVE",
"593 277 CURVE SMOOTH",
"610 290 OFFCURVE",
"627 289 OFFCURVE",
"634 290 CURVE",
"639 340 LINE",
"534 337 OFFCURVE",
"477 337 OFFCURVE",
"379 340 CURVE",
"375 290 LINE",
"386 290 OFFCURVE",
"404 286 OFFCURVE",
"415 274 CURVE SMOOTH",
"439 248 OFFCURVE",
"427 150 OFFCURVE",
"417 58 CURVE SMOOTH",
"404 -61 OFFCURVE",
"373 -258 OFFCURVE",
"375 -272 CURVE SMOOTH",
"379 -283 OFFCURVE",
"395 -293 OFFCURVE",
"431 -309 CURVE",
"312 -307 LINE",
"306 -360 LINE",
"468 -356 OFFCURVE",
"528 -356 OFFCURVE",
"783 -360 CURVE",
"793 -271 OFFCURVE",
"807 -201 OFFCURVE",
"808 -195 CURVE"
);
}
);
};
layerId = "71FD7A9F-05F5-4D76-8D4F-547475A05E4C";
name = "Regular Italic";
paths = (
{
closed = 1;
nodes = (
"181 711 OFFCURVE",
"-10 507 OFFCURVE",
"39 241 CURVE SMOOTH",
"73 59 OFFCURVE",
"184 9 OFFCURVE",
"287 -3 CURVE SMOOTH",
"382 -14 OFFCURVE",
"500 15 OFFCURVE",
"555 53 CURVE",
"556 130 OFFCURVE",
"566 234 OFFCURVE",
"573 256 CURVE SMOOTH",
"583 282 OFFCURVE",
"605 288 OFFCURVE",
"612 288 CURVE",
"617 338 LINE",
"522 335 OFFCURVE",
"499 336 OFFCURVE",
"400 339 CURVE",
"395 289 LINE",
"413 289 OFFCURVE",
"461 276 OFFCURVE",
"460 249 CURVE SMOOTH",
"458 194 OFFCURVE",
"458 108 OFFCURVE",
"402 72 CURVE",
"295 68 OFFCURVE",
"217 159 OFFCURVE",
"201 277 CURVE SMOOTH",
"173 481 OFFCURVE",
"254 606 OFFCURVE",
"322 633 CURVE",
"506 609 OFFCURVE",
"521 485 OFFCURVE",
"521 478 CURVE",
"565 482 LINE",
"575 534 OFFCURVE",
"586 580 OFFCURVE",
"602 632 CURVE",
"573 669 OFFCURVE",
"474 706 OFFCURVE",
"368 708 CURVE SMOOTH"
);
}
);
width = 600;
}
);
unicode = 0047;
},
{
glyphname = I;
lastChange = "2015-11-15 20:26:23 +0000";
layers = (
{
background = {
paths = (
{
closed = 1;
nodes = (
"436 175 LINE",
"433 172 OFFCURVE",
"423 96 OFFCURVE",
"364 74 CURVE SMOOTH",
"321 58 OFFCURVE",
"264 58 OFFCURVE",
"213 61 CURVE",
"195 150 OFFCURVE",
"206 278 OFFCURVE",
"223 433 CURVE SMOOTH",
"231 505 OFFCURVE",
"241 614 OFFCURVE",
"270 637 CURVE SMOOTH",
"287 650 OFFCURVE",
"304 649 OFFCURVE",
"311 650 CURVE",
"316 700 LINE",
"211 697 OFFCURVE",
"154 697 OFFCURVE",
"56 700 CURVE",
"52 650 LINE",
"63 650 OFFCURVE",
"81 646 OFFCURVE",
"92 634 CURVE SMOOTH",
"116 608 OFFCURVE",
"104 510 OFFCURVE",
"94 418 CURVE SMOOTH",
"81 299 OFFCURVE",
"50 102 OFFCURVE",
"52 88 CURVE SMOOTH",
"56 77 OFFCURVE",
"72 67 OFFCURVE",
"108 51 CURVE",
"-11 53 LINE",
"-17 0 LINE",
"145 4 OFFCURVE",
"205 4 OFFCURVE",
"460 0 CURVE",
"470 89 OFFCURVE",
"484 159 OFFCURVE",
"485 165 CURVE"
);
}
);
};
guideLines = (
{
angle = 84;
position = "{321, 461}";
}
);
layerId = "71FD7A9F-05F5-4D76-8D4F-547475A05E4C";
name = "Regular Italic";
paths = (
{
closed = 1;
nodes = (
"239 697 OFFCURVE",
"147 697 OFFCURVE",
"68 700 CURVE",
"63 649 LINE",
"70 649 OFFCURVE",
"98 645 OFFCURVE",
"109 628 CURVE SMOOTH",
"125 604 OFFCURVE",
"113 484 OFFCURVE",
"107 427 CURVE SMOOTH",
"92 290 OFFCURVE",
"60 103 OFFCURVE",
"62 88 CURVE SMOOTH",
"64 77 OFFCURVE",
"84 65 OFFCURVE",
"119 51 CURVE",
"1 52 LINE",
"-4 0 LINE",
"129 3 OFFCURVE",
"153 3 OFFCURVE",
"276 0 CURVE",
"281 50 LINE",
"238 51 LINE",
"174 51 OFFCURVE",
"213 322 OFFCURVE",
"225 443 CURVE SMOOTH",
"237 564 OFFCURVE",
"243 609 OFFCURVE",
"269 635 CURVE SMOOTH",
"281 647 OFFCURVE",
"305 649 OFFCURVE",
"312 649 CURVE",
"317 699 LINE"
);
}
);
width = 321;
}
);
unicode = 0049;
},
{
glyphname = L;
lastChange = "2015-11-09 19:04:13 +0000";
layers = (
{
background = {
paths = (
{
closed = 1;
nodes = (
"528 705 OFFCURVE",
"333 697 OFFCURVE",
"78 700 CURVE",
"74 657 LINE",
"78 650 OFFCURVE",
"124 649 OFFCURVE",
"125 616 CURVE SMOOTH",
"127 576 OFFCURVE",
"120 484 OFFCURVE",
"114 427 CURVE SMOOTH",
"101 299 OFFCURVE",
"68 98 OFFCURVE",
"70 85 CURVE SMOOTH",
"72 73 OFFCURVE",
"84 67 OFFCURVE",
"120 50 CURVE",
"93 51 OFFCURVE",
"23 54 OFFCURVE",
"17 51 CURVE",
"11 0 LINE",
"61 1 OFFCURVE",
"119 1 OFFCURVE",
"158 1 CURVE",
"158 1 OFFCURVE",
"158 1 OFFCURVE",
"158 1 CURVE",
"167 1 OFFCURVE",
"175 1 OFFCURVE",
"185 1 CURVE SMOOTH",
"202 1 OFFCURVE",
"219 0 OFFCURVE",
"235 0 CURVE SMOOTH",
"378 -1 OFFCURVE",
"492 -8 OFFCURVE",
"490 -1 CURVE",
"500 90 OFFCURVE",
"515 152 OFFCURVE",
"512 158 CURVE",
"468 173 LINE",
"464 166 OFFCURVE",
"457 95 OFFCURVE",
"393 74 CURVE SMOOTH",
"354 61 OFFCURVE",
"291 58 OFFCURVE",
"244 59 CURVE",
"215 92 OFFCURVE",
"222 230 OFFCURVE",
"233 333 CURVE",
"250 336 OFFCURVE",
"268 337 OFFCURVE",
"290 337 CURVE SMOOTH",
"368 337 OFFCURVE",
"342 279 OFFCURVE",
"348 276 CURVE",
"388 278 LINE",
"394 321 OFFCURVE",
"404 405 OFFCURVE",
"387 410 CURVE SMOOTH",
"394 408 OFFCURVE",
"235 404 OFFCURVE",
"241 404 CURVE",
"242 419 OFFCURVE",
"244 430 OFFCURVE",
"245 441 CURVE SMOOTH",
"256 545 OFFCURVE",
"265 605 OFFCURVE",
"275 641 CURVE",
"295 641 OFFCURVE",
"332 641 OFFCURVE",
"363 641 CURVE SMOOTH",
"457 640 OFFCURVE",
"481 580 OFFCURVE",
"496 531 CURVE",
"537 543 LINE",
"538 549 OFFCURVE",
"533 625 OFFCURVE",
"528 699 CURVE"
);
}
);
};
guideLines = (
{
angle = -12;
position = "{451, 184}";
}
);
layerId = "71FD7A9F-05F5-4D76-8D4F-547475A05E4C";
name = "Regular Italic";
paths = (
{
closed = 1;
nodes = (
"458 175 LINE",
"455 172 OFFCURVE",
"445 96 OFFCURVE",
"386 74 CURVE SMOOTH",
"343 58 OFFCURVE",
"286 58 OFFCURVE",
"235 61 CURVE",
"217 150 OFFCURVE",
"228 278 OFFCURVE",
"245 433 CURVE SMOOTH",
"253 505 OFFCURVE",
"263 614 OFFCURVE",
"292 637 CURVE SMOOTH",
"309 650 OFFCURVE",
"326 649 OFFCURVE",
"333 650 CURVE",
"338 700 LINE",
"233 697 OFFCURVE",
"176 697 OFFCURVE",
"78 700 CURVE",
"73 650 LINE",
"84 650 OFFCURVE",
"103 646 OFFCURVE",
"114 634 CURVE SMOOTH",
"138 608 OFFCURVE",
"126 510 OFFCURVE",
"116 418 CURVE SMOOTH",
"103 299 OFFCURVE",
"72 102 OFFCURVE",
"74 88 CURVE SMOOTH",
"78 77 OFFCURVE",
"94 67 OFFCURVE",
"130 51 CURVE",
"11 53 LINE",
"5 0 LINE",
"167 4 OFFCURVE",
"227 4 OFFCURVE",
"482 0 CURVE",
"492 89 OFFCURVE",
"506 159 OFFCURVE",
"507 165 CURVE"
);
}
);
width = 531;
}
);
leftMetricsKey = I;
unicode = 004C;
},
{
glyphname = O;
lastChange = "2015-11-15 19:52:13 +0000";
layers = (
{
background = {
paths = (
{
closed = 1;
nodes = (
"532 667 OFFCURVE",
"461 731 OFFCURVE",
"302 699 CURVE SMOOTH",
"31 644 OFFCURVE",
"-37 268 OFFCURVE",
"111 86 CURVE SMOOTH",
"180 2 OFFCURVE",
"286 -30 OFFCURVE",
"408 10 CURVE SMOOTH",
"682 102 OFFCURVE",
"698 459 OFFCURVE",
"576 612 CURVE SMOOTH"
);
},
{
closed = 1;
nodes = (
"309 110 OFFCURVE",
"270 134 OFFCURVE",
"240 209 CURVE SMOOTH",
"186 341 OFFCURVE",
"203 530 OFFCURVE",
"314 592 CURVE",
"366 592 OFFCURVE",
"408 576 OFFCURVE",
"440 501 CURVE SMOOTH",
"494 378 OFFCURVE",
"491 184 OFFCURVE",
"369 110 CURVE"
);
}
);
};
layerId = "71FD7A9F-05F5-4D76-8D4F-547475A05E4C";
name = "Regular Italic";
paths = (
{
closed = 1;
nodes = (
"524 671 OFFCURVE",
"453 732 OFFCURVE",
"287 696 CURVE SMOOTH",
"35 641 OFFCURVE",
"-19 234 OFFCURVE",
"105 89 CURVE SMOOTH",
"176 6 OFFCURVE",
"258 -23 OFFCURVE",
"398 8 CURVE SMOOTH",
"631 60 OFFCURVE",
"699 458 OFFCURVE",
"570 615 CURVE SMOOTH"
);
},
{
closed = 1;
nodes = (
"302 77 OFFCURVE",
"253 104 OFFCURVE",
"219 179 CURVE SMOOTH",
"150 333 OFFCURVE",
"170 544 OFFCURVE",
"305 627 CURVE",
"362 627 OFFCURVE",
"421 609 OFFCURVE",
"459 522 CURVE SMOOTH",
"523 377 OFFCURVE",
"507 162 OFFCURVE",
"370 77 CURVE"
);
}
);
width = 661;
}
);
unicode = 004F;
},
{
glyphname = P;
lastChange = "2015-11-15 19:40:50 +0000";
layers = (
{
background = {
paths = (
{
closed = 1;
nodes = (
"364 293 OFFCURVE",
"400 304 CURVE SMOOTH",
"493 332 OFFCURVE",
"559 435 OFFCURVE",
"562 518 CURVE SMOOTH",
"570 739 OFFCURVE",
"277 702 OFFCURVE",
"94 699 CURVE",
"90 649 LINE",
"116 648 OFFCURVE",
"129 638 OFFCURVE",
"135 624 CURVE SMOOTH",
"142 606 OFFCURVE",
"133 466 OFFCURVE",
"117 326 CURVE SMOOTH",
"95 137 OFFCURVE",
"80 91 OFFCURVE",
"84 78 CURVE SMOOTH",
"87 69 OFFCURVE",
"122 58 OFFCURVE",
"146 51 CURVE",
"27 51 LINE",
"21 0 LINE",
"141 3 OFFCURVE",
"183 3 OFFCURVE",
"298 0 CURVE",
"301 50 LINE",
"273 50 LINE",
"226 50 OFFCURVE",
"230 171 OFFCURVE",
"245 299 CURVE",
"281 295 OFFCURVE"
);
},
{
closed = 1;
nodes = (
"340 345 OFFCURVE",
"299 349 OFFCURVE",
"250 367 CURVE",
"257 434 OFFCURVE",
"264 489 OFFCURVE",
"273 556 CURVE",
"285 619 OFFCURVE",
"290 647 OFFCURVE",
"312 647 CURVE SMOOTH",
"434 649 OFFCURVE",
"473 386 OFFCURVE",
"360 345 CURVE"
);
},
{
closed = 1;
nodes = (
"319 298 LINE",
"377 36 OFFCURVE",
"401 35 OFFCURVE",
"404 32 CURVE SMOOTH",
"410 26 OFFCURVE",
"467 -1 OFFCURVE",
"520 -1 CURVE",
"555 7 OFFCURVE",
"582 25 OFFCURVE",
"587 28 CURVE",
"583 74 LINE",
"563 66 OFFCURVE",
"549 65 OFFCURVE",
"538 63 CURVE",
"486 119 OFFCURVE",
"447 226 OFFCURVE",
"422 325 CURVE"
);
}
);
};
guideLines = (
{
angle = 84;
position = "{621, 311}";
}
);
layerId = "71FD7A9F-05F5-4D76-8D4F-547475A05E4C";
name = "Regular Italic";
paths = (
{
closed = 1;
nodes = (
"235 703 OFFCURVE",
"372 713 OFFCURVE",
"472 670 CURVE SMOOTH",
"636 599 OFFCURVE",
"566 303 OFFCURVE",
"342 276 CURVE SMOOTH",
"283 269 OFFCURVE",
"185 291 OFFCURVE",
"162 321 CURVE SMOOTH",
"144 345 OFFCURVE",
"208 415 OFFCURVE",
"216 393 CURVE SMOOTH",
"227 362 OFFCURVE",
"260 345 OFFCURVE",
"293 335 CURVE",
"494 311 OFFCURVE",
"446 648 OFFCURVE",
"312 646 CURVE SMOOTH",
"277 645 OFFCURVE",
"276 590 OFFCURVE",
"247 338 CURVE",
"237 195 OFFCURVE",
"215 51 OFFCURVE",
"276 51 CURVE",
"321 50 LINE",
"316 0 LINE",
"193 3 OFFCURVE",
"147 3 OFFCURVE",
"22 0 CURVE",
"27 51 LINE",
"146 51 LINE",
"112 63 OFFCURVE",
"86 68 OFFCURVE",
"84 80 CURVE SMOOTH",
"81 93 OFFCURVE",
"119 369 OFFCURVE",
"126 426 CURVE SMOOTH",
"132 485 OFFCURVE",
"143 606 OFFCURVE",
"133 628 CURVE SMOOTH",
"126 643 OFFCURVE",
"99 650 OFFCURVE",
"88 649 CURVE",
"93 700 LINE"
);
}
);
width = 583;
}
);
leftMetricsKey = I;
unicode = 0050;
},
{
glyphname = R;
lastChange = "2015-11-15 20:27:31 +0000";
layers = (
{
background = {
paths = (
{
closed = 1;
nodes = (
"549 74 LINE",
"535 69 OFFCURVE",
"519 65 OFFCURVE",
"504 63 CURVE",
"487 78 OFFCURVE",
"467 123 OFFCURVE",
"465 178 CURVE",
"555 218 OFFCURVE",
"566 429 OFFCURVE",
"554 465 CURVE",
"461 480 LINE",
"393 484 OFFCURVE",
"300 319 OFFCURVE",
"283 265 CURVE",
"304 446 OFFCURVE",
"347 688 OFFCURVE",
"332 699 CURVE SMOOTH",
"319 708 OFFCURVE",
"186 746 OFFCURVE",
"166 739 CURVE",
"155 692 LINE",
"194 674 OFFCURVE",
"215 619 OFFCURVE",
"182 353 CURVE SMOOTH",
"165 217 OFFCURVE",
"137 42 OFFCURVE",
"135 31 CURVE",
"135 19 OFFCURVE",
"218 -3 OFFCURVE",
"261 -3 CURVE SMOOTH",
"276 -3 OFFCURVE",
"278 28 OFFCURVE",
"271 117 CURVE",
"300 260 OFFCURVE",
"403 380 OFFCURVE",
"430 392 CURVE",
"439 380 OFFCURVE",
"440 237 OFFCURVE",
"400 202 CURVE SMOOTH",
"389 193 OFFCURVE",
"373 185 OFFCURVE",
"356 183 CURVE",
"355 135 OFFCURVE",
"367 42 OFFCURVE",
"380 31 CURVE",
"400 19 OFFCURVE",
"437 -1 OFFCURVE",
"486 -1 CURVE",
"521 7 OFFCURVE",
"537 18 OFFCURVE",
"553 28 CURVE"
);
}
);
};
guideLines = (
{
position = "{481, 480}";
}
);
layerId = "71FD7A9F-05F5-4D76-8D4F-547475A05E4C";
name = "Regular Italic";
paths = (
{
closed = 1;
nodes = (
"255 295 OFFCURVE",
"338 291 OFFCURVE",
"374 302 CURVE SMOOTH",
"467 330 OFFCURVE",
"533 435 OFFCURVE",
"536 518 CURVE SMOOTH",
"544 739 OFFCURVE",
"252 702 OFFCURVE",
"69 699 CURVE",
"64 649 LINE",
"90 648 OFFCURVE",
"103 638 OFFCURVE",
"109 624 CURVE SMOOTH",
"116 606 OFFCURVE",
"107 466 OFFCURVE",
"91 326 CURVE SMOOTH",
"69 137 OFFCURVE",
"54 91 OFFCURVE",
"58 78 CURVE SMOOTH",
"61 69 OFFCURVE",
"96 58 OFFCURVE",
"120 51 CURVE",
"1 51 LINE",
"-5 0 LINE",
"115 3 OFFCURVE",
"157 3 OFFCURVE",
"272 0 CURVE",
"275 50 LINE",
"247 50 LINE",
"200 50 OFFCURVE",
"204 171 OFFCURVE",
"219 299 CURVE"
);
},
{
closed = 1;
nodes = (
"314 345 OFFCURVE",
"273 349 OFFCURVE",
"224 367 CURVE",
"231 434 OFFCURVE",
"238 489 OFFCURVE",
"247 556 CURVE",
"259 634 OFFCURVE",
"264 646 OFFCURVE",
"286 646 CURVE SMOOTH",
"408 648 OFFCURVE",
"447 386 OFFCURVE",
"334 345 CURVE"
);
},
{
closed = 1;
nodes = (
"286 298 LINE",
"344 36 OFFCURVE",
"368 35 OFFCURVE",
"371 32 CURVE SMOOTH",
"377 26 OFFCURVE",
"434 -1 OFFCURVE",
"487 -1 CURVE",
"522 7 OFFCURVE",
"549 25 OFFCURVE",
"554 28 CURVE",
"550 74 LINE",
"530 66 OFFCURVE",
"516 65 OFFCURVE",
"505 63 CURVE",
"453 119 OFFCURVE",
"414 226 OFFCURVE",
"389 325 CURVE"
);
}
);
width = 586;
}
);
leftMetricsKey = I;
unicode = 0052;
},
{
glyphname = S;
lastChange = "2015-11-15 20:02:11 +0000";
layers = (
{
background = {
paths = (
{
closed = 1;
nodes = (
"471 79 LINE",
"446 54 OFFCURVE",
"376 -4 OFFCURVE",
"242 -8 CURVE SMOOTH",
"114 -12 OFFCURVE",
"-13 68 OFFCURVE",
"-43 245 CURVE SMOOTH",
"-82 474 OFFCURVE",
"66 709 OFFCURVE",
"296 709 CURVE SMOOTH",
"390 709 OFFCURVE",
"483 670 OFFCURVE",
"511 632 CURVE",
"497 578 OFFCURVE",
"484 533 OFFCURVE",
"474 482 CURVE",
"433 478 LINE",
"432 485 OFFCURVE",
"412 612 OFFCURVE",
"242 633 CURVE",
"170 610 OFFCURVE",
"86 447 OFFCURVE",
"121 270 CURVE SMOOTH",
"143 158 OFFCURVE",
"208 90 OFFCURVE",
"296 78 CURVE SMOOTH",
"357 70 OFFCURVE",
"428 107 OFFCURVE",
"458 140 CURVE"
);
}
);
};
layerId = "71FD7A9F-05F5-4D76-8D4F-547475A05E4C";
name = "Regular Italic";
paths = (
{
closed = 1;
nodes = (
"388 32 OFFCURVE",
"454 104 OFFCURVE",
"464 197 CURVE SMOOTH",
"476 310 OFFCURVE",
"363 368 OFFCURVE",
"299 397 CURVE SMOOTH",
"198 443 OFFCURVE",
"142 488 OFFCURVE",
"142 510 CURVE",
"156 558 OFFCURVE",
"204 619 OFFCURVE",
"239 627 CURVE",
"313 616 OFFCURVE",
"382 589 OFFCURVE",
"409 478 CURVE",
"422 483 OFFCURVE",
"441 488 OFFCURVE",
"453 495 CURVE",
"460 524 OFFCURVE",
"480 604 OFFCURVE",
"487 632 CURVE",
"440 679 OFFCURVE",
"372 714 OFFCURVE",
"270 707 CURVE SMOOTH",
"152 699 OFFCURVE",
"44 622 OFFCURVE",
"30 493 CURVE SMOOTH",
"18 379 OFFCURVE",
"117 322 OFFCURVE",
"191 289 CURVE SMOOTH",
"287 245 OFFCURVE",
"353 208 OFFCURVE",
"353 182 CURVE",
"338 128 OFFCURVE",
"290 84 OFFCURVE",
"251 65 CURVE",
"155 71 OFFCURVE",
"76 115 OFFCURVE",
"55 214 CURVE",
"41 208 OFFCURVE",
"25 202 OFFCURVE",
"10 195 CURVE",
"1 161 OFFCURVE",
"-20 74 OFFCURVE",
"-24 62 CURVE",
"45 -18 OFFCURVE",
"201 -42 OFFCURVE",
"329 9 CURVE SMOOTH"
);
}
);
width = 469;
}
);
unicode = 0053;
},
{
glyphname = T;
lastChange = "2015-11-15 16:39:07 +0000";
layers = (
{
guideLines = (
{
position = "{392, 637}";
},
{
angle = -85;
position = "{571, 569}";
},
{
angle = 84;
position = "{487, 570}";
}
);
layerId = "71FD7A9F-05F5-4D76-8D4F-547475A05E4C";
name = "Regular Italic";
paths = (
{
closed = 1;
nodes = (
"62 700 LINE",
"27 528 LINE",
"72 518 LINE",
"81 561 OFFCURVE",
"108 635 OFFCURVE",
"212 635 CURVE SMOOTH",
"225 635 OFFCURVE",
"242 635 OFFCURVE",
"258 635 CURVE",
"264 597 OFFCURVE",
"248 469 OFFCURVE",
"245 427 CURVE SMOOTH",
"234 278 OFFCURVE",
"196 102 OFFCURVE",
"198 88 CURVE SMOOTH",
"200 78 OFFCURVE",
"213 69 OFFCURVE",
"248 51 CURVE",
"138 51 LINE",
"133 0 LINE",
"255 3 OFFCURVE",
"297 3 OFFCURVE",
"423 0 CURVE",
"428 50 LINE",
"387 50 LINE",
"323 50 OFFCURVE",
"363 322 OFFCURVE",
"377 441 CURVE SMOOTH",
"388 535 OFFCURVE",
"392 597 OFFCURVE",
"402 635 CURVE",
"415 635 OFFCURVE",
"431 635 OFFCURVE",
"447 635 CURVE SMOOTH",
"532 634 OFFCURVE",
"568 578 OFFCURVE",
"573 518 CURVE",
"622 529 LINE",
"623 536 OFFCURVE",
"614 616 OFFCURVE",
"610 700 CURVE"
);
}
);
width = 594;
}
);
unicode = 0054;
},
{
glyphname = V;
lastChange = "2015-11-17 13:32:25 +0000";
layers = (
{
background = {
paths = (
{
closed = 1;
nodes = (
"517 605 OFFCURVE",
"487 518 OFFCURVE",
"470 468 CURVE SMOOTH",
"418 318 OFFCURVE",
"351 120 OFFCURVE",
"298 0 CURVE",
"380 0 LINE",
"486 278 OFFCURVE",
"564 534 OFFCURVE",
"582 580 CURVE SMOOTH",
"606 640 OFFCURVE",
"650 650 OFFCURVE",
"676 650 CURVE",
"681 700 LINE",
"439 700 LINE",
"435 651 LINE",
"442 651 OFFCURVE",
"501 654 OFFCURVE",
"507 635 CURVE SMOOTH"
);
}
);
};
layerId = "71FD7A9F-05F5-4D76-8D4F-547475A05E4C";
name = "Regular Italic";
paths = (
{
closed = 1;
nodes = (
"392 91 LINE",
"377 173 OFFCURVE",
"284 610 OFFCURVE",
"280 617 CURVE SMOOTH",
"273 628 OFFCURVE",
"249 640 OFFCURVE",
"226 650 CURVE",
"326 650 LINE",
"330 700 LINE",
"60 700 LINE",
"55 650 LINE",
"98 650 LINE",
"132 650 OFFCURVE",
"180 448 OFFCURVE",
"209 327 CURVE SMOOTH",
"235 220 OFFCURVE",
"277 44 OFFCURVE",
"290 0 CURVE"
);
},
{
closed = 1;
nodes = (
"523 613 OFFCURVE",
"478 502 OFFCURVE",
"460 452 CURVE SMOOTH",
"406 302 OFFCURVE",
"336 89 OFFCURVE",
"292 0 CURVE",
"372 0 LINE",
"478 278 OFFCURVE",
"569 545 OFFCURVE",
"588 592 CURVE SMOOTH",
"607 638 OFFCURVE",
"641 650 OFFCURVE",
"671 650 CURVE",
"676 700 LINE",
"445 700 LINE",
"441 650 LINE",
"448 650 OFFCURVE",
"492 654 OFFCURVE",
"504 638 CURVE SMOOTH"
);
}
);
width = 675;
}
);
unicode = 0056;
},
{
glyphname = W;
lastChange = "2015-11-17 13:31:01 +0000";
layers = (
{
background = {
paths = (
{
closed = 1;
nodes = (
"422 649 LINE",
"429 649 OFFCURVE",
"478 653 OFFCURVE",
"490 637 CURVE SMOOTH",
"509 612 OFFCURVE",
"473 502 OFFCURVE",
"456 452 CURVE SMOOTH",
"428 370 OFFCURVE",
"396 270 OFFCURVE",
"367 181 CURVE",
"335 336 OFFCURVE",
"276 611 OFFCURVE",
"273 617 CURVE",
"266 628 OFFCURVE",
"242 639 OFFCURVE",
"219 649 CURVE",
"321 648 LINE",
"325 700 LINE",
"188 697 OFFCURVE",
"196 697 OFFCURVE",
"65 700 CURVE",
"61 650 LINE",
"99 649 LINE SMOOTH",
"133 648 OFFCURVE",
"179 448 OFFCURVE",
"208 327 CURVE SMOOTH",
"234 220 OFFCURVE",
"276 44 OFFCURVE",
"289 0 CURVE",
"294 5 LINE",
"291 0 LINE",
"371 0 LINE",
"474 278 OFFCURVE",
"563 569 OFFCURVE",
"586 609 CURVE SMOOTH",
"616 662 OFFCURVE",
"661 649 OFFCURVE",
"668 652 CURVE",
"673 700 LINE",
"567 698 OFFCURVE",
"535 698 OFFCURVE",
"426 700 CURVE"
);
}
);
};
guideLines = (
{
angle = 70;
position = "{762, 347}";
}
);
layerId = "71FD7A9F-05F5-4D76-8D4F-547475A05E4C";
name = "Regular Italic";
paths = (
{
closed = 1;
nodes = (
"693 219 LINE",
"662 370 OFFCURVE",
"610 611 OFFCURVE",
"607 617 CURVE",
"600 628 OFFCURVE",
"576 640 OFFCURVE",
"553 650 CURVE",
"654 650 LINE",
"659 700 LINE",
"399 700 LINE",
"395 650 LINE",
"433 650 LINE SMOOTH",
"461 650 OFFCURVE",
"472 608 OFFCURVE",
"624 0 CURVE",
"629 5 LINE",
"626 0 LINE",
"708 58 LINE"
);
},
{
closed = 1;
nodes = (
"369 194 LINE",
"339 350 OFFCURVE",
"285 613 OFFCURVE",
"282 618 CURVE SMOOTH",
"275 629 OFFCURVE",
"251 641 OFFCURVE",
"228 651 CURVE",
"327 651 LINE",
"331 700 LINE",
"65 700 LINE",
"61 650 LINE",
"105 650 LINE SMOOTH",
"139 650 OFFCURVE",
"185 448 OFFCURVE",
"212 327 CURVE SMOOTH",
"236 220 OFFCURVE",
"277 44 OFFCURVE",
"290 0 CURVE",
"295 5 LINE",
"292 0 LINE",
"372 0 LINE",
"561 512 LINE",
"498 545 LINE"
);
},
{
closed = 1;
nodes = (
"843 605 OFFCURVE",
"813 518 OFFCURVE",
"796 468 CURVE SMOOTH",
"744 318 OFFCURVE",
"677 120 OFFCURVE",
"624 0 CURVE",
"706 0 LINE",
"812 278 OFFCURVE",
"890 534 OFFCURVE",
"908 580 CURVE SMOOTH",
"932 640 OFFCURVE",
"976 650 OFFCURVE",
"1002 650 CURVE",
"1007 700 LINE",
"765 700 LINE",
"761 651 LINE",
"768 651 OFFCURVE",
"827 654 OFFCURVE",
"833 635 CURVE SMOOTH"
);
}
);
width = 959;
}
);
unicode = 0057;
},
{
glyphname = A.001;
lastChange = "2015-11-15 20:53:18 +0000";
layers = (
{
background = {
paths = (
{
closed = 1;
nodes = (
"302 609 LINE",
"317 527 OFFCURVE",
"410 90 OFFCURVE",
"414 83 CURVE SMOOTH",
"421 72 OFFCURVE",
"445 61 OFFCURVE",
"468 51 CURVE",
"373 52 LINE",
"369 0 LINE",
"506 3 OFFCURVE",
"497 3 OFFCURVE",
"628 0 CURVE",
"632 50 LINE",
"588 51 LINE",
"554 51 OFFCURVE",
"508 252 OFFCURVE",
"479 373 CURVE SMOOTH",
"453 480 OFFCURVE",
"411 656 OFFCURVE",
"398 700 CURVE"
);
},
{
closed = 1;
nodes = (
"171 88 OFFCURVE",
"213 198 OFFCURVE",
"231 248 CURVE SMOOTH",
"287 397 OFFCURVE",
"338 611 OFFCURVE",
"396 700 CURVE",
"316 700 LINE",
"210 422 OFFCURVE",
"117 131 OFFCURVE",
"94 91 CURVE SMOOTH",
"64 38 OFFCURVE",
"19 51 OFFCURVE",
"12 48 CURVE",
"7 0 LINE",
"113 2 OFFCURVE",
"145 2 OFFCURVE",
"254 0 CURVE",
"258 51 LINE",
"251 51 OFFCURVE",
"202 47 OFFCURVE",
"190 63 CURVE SMOOTH"
);
}
);
};
layerId = "71FD7A9F-05F5-4D76-8D4F-547475A05E4C";
name = "Regular Italic";
paths = (
{
closed = 1;
nodes = (
"307 689 LINE",
"309 677 OFFCURVE",
"298 655 OFFCURVE",
"303 626 CURVE",
"330 464 OFFCURVE",
"420 85 OFFCURVE",
"423 79 CURVE",
"448 65 LINE",
"379 48 LINE",
"374 0 LINE",
"505 3 OFFCURVE",
"491 3 OFFCURVE",
"616 0 CURVE",
"620 46 LINE",
"550 79 LINE",
"521 184 OFFCURVE",
"408 664 OFFCURVE",
"396 708 CURVE"
);
},
{
closed = 1;
nodes = (
"182 236 LINE",
"436 235 LINE",
"435 291 LINE",
"181 292 LINE"
);
},
{
closed = 1;
nodes = (
"173 60 LINE",
"182 104 OFFCURVE",
"217 213 OFFCURVE",
"229 248 CURVE SMOOTH",
"280 397 OFFCURVE",
"326 556 OFFCURVE",
"384 705 CURVE",
"307 689 LINE",
"201 411 OFFCURVE",
"109 118 OFFCURVE",
"90 79 CURVE",
"3 45 LINE",
"-3 0 LINE",
"103 2 OFFCURVE",
"133 2 OFFCURVE",
"242 0 CURVE",
"247 48 LINE"
);
}
);
width = 661;
}
);
},
{
glyphname = E.001;
lastChange = "2015-11-15 20:51:04 +0000";
layers = (
{
background = {
paths = (
{
closed = 1;
nodes = (
"267 295 OFFCURVE",
"350 293 OFFCURVE",
"386 304 CURVE SMOOTH",
"479 332 OFFCURVE",
"545 435 OFFCURVE",
"548 518 CURVE SMOOTH",
"556 739 OFFCURVE",
"264 702 OFFCURVE",
"81 699 CURVE",
"76 649 LINE",
"102 648 OFFCURVE",
"115 638 OFFCURVE",
"121 624 CURVE SMOOTH",
"128 606 OFFCURVE",
"119 466 OFFCURVE",
"103 326 CURVE SMOOTH",
"81 137 OFFCURVE",
"66 91 OFFCURVE",
"70 78 CURVE SMOOTH",
"73 69 OFFCURVE",
"108 58 OFFCURVE",
"132 51 CURVE",
"13 51 LINE",
"7 0 LINE",
"127 3 OFFCURVE",
"169 3 OFFCURVE",
"284 0 CURVE",
"287 50 LINE",
"259 50 LINE",
"212 50 OFFCURVE",
"216 171 OFFCURVE",
"231 299 CURVE"
);
},
{
closed = 1;
nodes = (
"326 345 OFFCURVE",
"285 349 OFFCURVE",
"236 367 CURVE",
"243 434 OFFCURVE",
"250 489 OFFCURVE",
"259 556 CURVE",
"271 634 OFFCURVE",
"276 651 OFFCURVE",
"298 651 CURVE SMOOTH",
"420 653 OFFCURVE",
"459 386 OFFCURVE",
"346 345 CURVE"
);
},
{
closed = 1;
nodes = (
"305 298 LINE",
"363 36 OFFCURVE",
"387 35 OFFCURVE",
"390 32 CURVE SMOOTH",
"396 26 OFFCURVE",
"453 -1 OFFCURVE",
"506 -1 CURVE",
"541 7 OFFCURVE",
"568 25 OFFCURVE",
"573 28 CURVE",
"569 74 LINE",
"549 66 OFFCURVE",
"535 65 OFFCURVE",
"524 63 CURVE",
"472 119 OFFCURVE",
"433 226 OFFCURVE",
"408 325 CURVE"
);
}
);
};
guideLines = (
{
angle = 12;
position = "{487, 529}";
},
{
angle = -12;
position = "{468, 175}";
},
{
angle = 84;
position = "{482, 548}";
}
);
layerId = "71FD7A9F-05F5-4D76-8D4F-547475A05E4C";
name = "Regular Italic";
paths = (
{
closed = 1;
nodes = (
"319 696 OFFCURVE",
"248 697 OFFCURVE",
"81 700 CURVE",
"76 649 LINE",
"123 628 LINE",
"125 588 OFFCURVE",
"119 484 OFFCURVE",
"114 427 CURVE SMOOTH",
"98 249 OFFCURVE",
"68 90 OFFCURVE",
"69 77 CURVE",
"132 50 LINE",
"11 51 LINE",
"6 0 LINE",
"194 3 OFFCURVE",
"275 3 OFFCURVE",
"490 -1 CURVE",
"512 163 LINE",
"468 173 LINE",
"415 74 LINE",
"376 61 OFFCURVE",
"287 60 OFFCURVE",
"240 61 CURVE",
"211 94 OFFCURVE",
"222 233 OFFCURVE",
"233 336 CURVE",
"323 335 LINE",
"348 276 LINE",
"388 279 LINE",
"394 322 OFFCURVE",
"404 405 OFFCURVE",
"387 410 CURVE SMOOTH",
"394 408 OFFCURVE",
"235 405 OFFCURVE",
"241 405 CURVE",
"244 456 OFFCURVE",
"263 593 OFFCURVE",
"275 637 CURVE",
"436 637 LINE",
"493 527 LINE",
"541 537 LINE",
"528 699 LINE"
);
}
);
width = 553;
}
);
leftMetricsKey = I;
},
{
glyphname = A.002;
layers = (
{
background = {
paths = (
{
closed = 1;
nodes = (
"297 609 LINE",
"312 527 OFFCURVE",
"405 90 OFFCURVE",
"409 83 CURVE SMOOTH",
"416 72 OFFCURVE",
"440 60 OFFCURVE",
"463 50 CURVE",
"363 50 LINE",
"359 0 LINE",
"629 0 LINE",
"634 50 LINE",
"591 50 LINE",
"557 50 OFFCURVE",
"509 252 OFFCURVE",
"480 373 CURVE SMOOTH",
"454 480 OFFCURVE",
"412 656 OFFCURVE",
"399 700 CURVE"
);
},
{
closed = 1;
nodes = (
"159 87 OFFCURVE",
"211 198 OFFCURVE",
"229 248 CURVE SMOOTH",
"283 398 OFFCURVE",
"353 611 OFFCURVE",
"397 700 CURVE",
"317 700 LINE",
"211 422 OFFCURVE",
"113 155 OFFCURVE",
"94 108 CURVE SMOOTH",
"75 62 OFFCURVE",
"41 50 OFFCURVE",
"11 50 CURVE",
"6 0 LINE",
"237 0 LINE",
"241 50 LINE",
"234 50 OFFCURVE",
"190 46 OFFCURVE",
"178 62 CURVE SMOOTH"
);
}
);
};
layerId = "71FD7A9F-05F5-4D76-8D4F-547475A05E4C";
name = "Regular Italic";
paths = (
{
closed = 1;
nodes = (
"313 689 LINE",
"315 677 OFFCURVE",
"297 642 OFFCURVE",
"302 613 CURVE",
"326 451 OFFCURVE",
"404 92 OFFCURVE",
"409 83 CURVE SMOOTH",
"415 72 OFFCURVE",
"443 57 OFFCURVE",
"466 50 CURVE",
"363 50 LINE",
"359 0 LINE",
"629 0 LINE",
"634 50 LINE",
"593 50 LINE",
"577 50 OFFCURVE",
"561 84 OFFCURVE",
"550 115 CURVE SMOOTH",
"512 222 OFFCURVE",
"410 664 OFFCURVE",
"398 708 CURVE"
);
},
{
closed = 1;
nodes = (
"182 236 LINE",
"436 235 LINE",
"435 291 LINE",
"181 292 LINE"
);
},
{
closed = 1;
nodes = (
"159 81 OFFCURVE",
"209 198 OFFCURVE",
"227 248 CURVE SMOOTH",
"281 397 OFFCURVE",
"336 556 OFFCURVE",
"394 705 CURVE",
"313 689 LINE",
"207 411 OFFCURVE",
"117 165 OFFCURVE",
"102 125 CURVE SMOOTH",
"77 57 OFFCURVE",
"40 50 OFFCURVE",
"11 50 CURVE",
"5 0 LINE",
"237 0 LINE",
"241 50 LINE",
"234 50 OFFCURVE",
"192 46 OFFCURVE",
"178 61 CURVE SMOOTH"
);
}
);
width = 661;
}
);
},
{
glyphname = a;
lastChange = "2015-11-17 12:15:22 +0000";
layers = (
{
background = {
paths = (
{
closed = 1;
nodes = (
"107 4 OFFCURVE",
"146 -5 OFFCURVE",
"181 -2 CURVE",
"228 39 OFFCURVE",
"253 70 OFFCURVE",
"297 131 CURVE",
"294 113 OFFCURVE",
"287 39 OFFCURVE",
"295 31 CURVE SMOOTH",
"307 19 OFFCURVE",
"439 -6 OFFCURVE",
"450 -1 CURVE",
"461 43 LINE",
"446 50 OFFCURVE",
"420 73 OFFCURVE",
"421 124 CURVE SMOOTH",
"422 182 OFFCURVE",
"435 333 OFFCURVE",
"448 423 CURVE SMOOTH",
"466 545 OFFCURVE",
"492 673 OFFCURVE",
"485 681 CURVE SMOOTH",
"473 691 OFFCURVE",
"337 740 OFFCURVE",
"324 730 CURVE",
"312 679 LINE",
"330 670 OFFCURVE",
"351 612 OFFCURVE",
"352 564 CURVE SMOOTH",
"353 523 OFFCURVE",
"351 499 OFFCURVE",
"347 450 CURVE",
"302 474 OFFCURVE",
"254 484 OFFCURVE",
"204 482 CURVE",
"32 432 OFFCURVE",
"-27 174 OFFCURVE",
"81 37 CURVE SMOOTH"
);
},
{
closed = 1;
nodes = (
"259 411 OFFCURVE",
"304 379 OFFCURVE",
"331 340 CURVE",
"315 251 LINE",
"288 194 OFFCURVE",
"210 114 OFFCURVE",
"205 109 CURVE",
"194 114 OFFCURVE",
"183 124 OFFCURVE",
"174 146 CURVE SMOOTH",
"141 228 OFFCURVE",
"145 365 OFFCURVE",
"223 415 CURVE"
);
}
);
};
guideLines = (
{
angle = -20;
position = "{408, 503}";
}
);
layerId = "71FD7A9F-05F5-4D76-8D4F-547475A05E4C";
name = "Regular Italic";
paths = (
{
closed = 1;
nodes = (
"270 77 OFFCURVE",
"304 147 OFFCURVE",
"312 153 CURVE",
"312 153 OFFCURVE",
"356 282 OFFCURVE",
"337 289 CURVE",
"321 254 OFFCURVE",
"257 157 OFFCURVE",
"205 110 CURVE",
"198 110 OFFCURVE",
"185 121 OFFCURVE",
"175 144 CURVE SMOOTH",
"136 239 OFFCURVE",
"152 371 OFFCURVE",
"222 414 CURVE",
"272 414 OFFCURVE",
"333 349 OFFCURVE",
"344 316 CURVE",
"344 316 OFFCURVE",
"391 357 OFFCURVE",
"391 413 CURVE",
"349 462 OFFCURVE",
"274 483 OFFCURVE",
"206 483 CURVE",
"32 433 OFFCURVE",
"-23 171 OFFCURVE",
"78 41 CURVE SMOOTH",
"109 1 OFFCURVE",
"142 -3 OFFCURVE",
"180 -3 CURVE"
);
},
{
closed = 1;
nodes = (
"434 5 OFFCURVE",
"460 17 OFFCURVE",
"476 28 CURVE",
"472 74 LINE",
"459 69 OFFCURVE",
"433 62 OFFCURVE",
"418 62 CURVE",
"390 91 OFFCURVE",
"434 322 OFFCURVE",
"442 352 CURVE SMOOTH",
"450 383 OFFCURVE",
"459 424 OFFCURVE",
"470 456 CURVE",
"458 467 OFFCURVE",
"437 475 OFFCURVE",
"424 479 CURVE SMOOTH",
"406 484 OFFCURVE",
"339 399 OFFCURVE",
"334 371 CURVE",
"329 364 OFFCURVE",
"327 362 OFFCURVE",
"326 347 CURVE SMOOTH",
"319 243 OFFCURVE",
"278 68 OFFCURVE",
"294 42 CURVE SMOOTH",
"304 26 OFFCURVE",
"355 -2 OFFCURVE",
"405 -1 CURVE"
);
}
);
width = 508;
}
);
leftMetricsKey = o;
rightMetricsKey = i;
unicode = 0061;
},
{
glyphname = b;
lastChange = "2015-11-17 12:38:10 +0000";
layers = (
{
background = {
paths = (
{
closed = 1;
nodes = (
"237 398 OFFCURVE",
"203 328 OFFCURVE",
"195 322 CURVE",
"195 322 OFFCURVE",
"151 193 OFFCURVE",
"170 186 CURVE",
"186 221 OFFCURVE",
"250 318 OFFCURVE",
"302 365 CURVE",
"309 365 OFFCURVE",
"322 354 OFFCURVE",
"332 331 CURVE SMOOTH",
"371 236 OFFCURVE",
"355 104 OFFCURVE",
"285 61 CURVE",
"235 61 OFFCURVE",
"174 126 OFFCURVE",
"163 159 CURVE",
"163 159 OFFCURVE",
"116 118 OFFCURVE",
"116 62 CURVE",
"158 13 OFFCURVE",
"233 -8 OFFCURVE",
"301 -8 CURVE",
"475 42 OFFCURVE",
"530 304 OFFCURVE",
"429 434 CURVE SMOOTH",
"398 474 OFFCURVE",
"365 478 OFFCURVE",
"327 478 CURVE"
);
},
{
closed = 1;
nodes = (
"73 470 OFFCURVE",
"47 458 OFFCURVE",
"31 447 CURVE",
"35 401 LINE",
"48 406 OFFCURVE",
"74 413 OFFCURVE",
"89 413 CURVE",
"117 384 OFFCURVE",
"73 153 OFFCURVE",
"65 123 CURVE SMOOTH",
"57 92 OFFCURVE",
"48 51 OFFCURVE",
"37 19 CURVE",
"49 8 OFFCURVE",
"70 0 OFFCURVE",
"83 -4 CURVE SMOOTH",
"101 -9 OFFCURVE",
"168 76 OFFCURVE",
"173 104 CURVE",
"178 111 OFFCURVE",
"180 113 OFFCURVE",
"181 128 CURVE SMOOTH",
"188 232 OFFCURVE",
"229 407 OFFCURVE",
"213 433 CURVE SMOOTH",
"203 449 OFFCURVE",
"152 477 OFFCURVE",
"102 476 CURVE"
);
}
);
};
guideLines = (
{
angle = -12;
position = "{203, 724}";
},
{
angle = -20;
position = "{41, -2}";
}
);
layerId = "71FD7A9F-05F5-4D76-8D4F-547475A05E4C";
name = "Regular Italic";
paths = (
{
closed = 1;
nodes = (
"395 480 OFFCURVE",
"365 484 OFFCURVE",
"326 482 CURVE",
"293 457 OFFCURVE",
"235 381 OFFCURVE",
"211 347 CURVE",
"236 543 OFFCURVE",
"260 684 OFFCURVE",
"247 705 CURVE SMOOTH",
"239 718 OFFCURVE",
"101 746 OFFCURVE",
"88 739 CURVE",
"78 697 LINE",
"85 693 OFFCURVE",
"106 678 OFFCURVE",
"120 666 CURVE",
"122 647 OFFCURVE",
"122 606 OFFCURVE",
"120 569 CURVE SMOOTH",
"111 433 OFFCURVE",
"80 203 OFFCURVE",
"65 123 CURVE SMOOTH",
"59 91 OFFCURVE",
"48 49 OFFCURVE",
"36 18 CURVE",
"43 14 OFFCURVE",
"58 2 OFFCURVE",
"79 -3 CURVE SMOOTH",
"92 -6 OFFCURVE",
"99 0 OFFCURVE",
"136 42 CURVE",
"171 17 OFFCURVE",
"240 -11 OFFCURVE",
"304 -4 CURVE",
"480 45 OFFCURVE",
"535 312 OFFCURVE",
"427 442 CURVE SMOOTH"
);
},
{
closed = 1;
nodes = (
"284 63 LINE SMOOTH",
"284 63 OFFCURVE",
"231 68 OFFCURVE",
"178 137 CURVE",
"195 232 LINE",
"228 290 OFFCURVE",
"285 351 OFFCURVE",
"303 368 CURVE",
"310 368 OFFCURVE",
"326 354 OFFCURVE",
"335 329 CURVE SMOOTH",
"365 247 OFFCURVE",
"363 106 OFFCURVE",
"284 63 CURVE"
);
}
);
width = 505;
}
);
leftMetricsKey = i;
rightMetricsKey = o;
unicode = 0062;
},
{
glyphname = c;
lastChange = "2015-11-13 19:18:36 +0000";
layers = (
{
background = {
paths = (
{
closed = 1;
nodes = (
"291 336 OFFCURVE",
"281 410 OFFCURVE",
"221 410 CURVE",
"137 356 OFFCURVE",
"136 219 OFFCURVE",
"167 144 CURVE SMOOTH",
"184 104 OFFCURVE",
"220 79 OFFCURVE",
"248 76 CURVE SMOOTH",
"305 70 OFFCURVE",
"356 106 OFFCURVE",
"372 122 CURVE",
"377 103 OFFCURVE",
"381 87 OFFCURVE",
"384 67 CURVE",
"375 57 OFFCURVE",
"334 23 OFFCURVE",
"290 10 CURVE SMOOTH",
"228 -8 OFFCURVE",
"132 -11 OFFCURVE",
"77 53 CURVE SMOOTH",
"-32 179 OFFCURVE",
"28 433 OFFCURVE",
"207 483 CURVE",
"338 499 OFFCURVE",
"390 441 OFFCURVE",
"402 377 CURVE SMOOTH",
"423 263 OFFCURVE",
"315 152 OFFCURVE",
"143 175 CURVE",
"83 207 OFFCURVE",
"90 206 OFFCURVE",
"137 229 CURVE",
"228 215 OFFCURVE",
"291 280 OFFCURVE",
"291 318 CURVE SMOOTH"
);
},
{
closed = 1;
nodes = (
"-47 439 OFFCURVE",
"-28 481 OFFCURVE",
"-28 481 CURVE",
"-25 487 OFFCURVE",
"123 459 OFFCURVE",
"133 442 CURVE SMOOTH",
"142 427 OFFCURVE",
"126 315 OFFCURVE",
"118 259 CURVE",
"128 304 OFFCURVE",
"167 378 OFFCURVE",
"221 452 CURVE",
"228 458 OFFCURVE",
"273 483 OFFCURVE",
"294 482 CURVE SMOOTH",
"327 480 OFFCURVE",
"356 465 OFFCURVE",
"365 440 CURVE",
"364 428 OFFCURVE",
"325 336 OFFCURVE",
"303 308 CURVE",
"278 326 OFFCURVE",
"253 342 OFFCURVE",
"228 352 CURVE",
"199 326 OFFCURVE",
"150 266 OFFCURVE",
"110 113 CURVE",
"115 44 OFFCURVE",
"114 -3 OFFCURVE",
"98 -4 CURVE SMOOTH",
"60 -6 OFFCURVE",
"-32 17 OFFCURVE",
"-29 37 CURVE SMOOTH",
"-23 79 OFFCURVE",
"7 313 OFFCURVE",
"8 344 CURVE SMOOTH",
"10 395 OFFCURVE",
"-1 411 OFFCURVE",
"-32 430 CURVE SMOOTH"
);
}
);
};
layerId = "71FD7A9F-05F5-4D76-8D4F-547475A05E4C";
name = "Regular Italic";
paths = (
{
closed = 1;
nodes = (
"297 357 OFFCURVE",
"258 381 OFFCURVE",
"230 393 CURVE",
"149 346 OFFCURVE",
"134 216 OFFCURVE",
"166 146 CURVE SMOOTH",
"182 111 OFFCURVE",
"212 79 OFFCURVE",
"249 76 CURVE SMOOTH",
"305 72 OFFCURVE",
"344 91 OFFCURVE",
"362 100 CURVE",
"368 50 LINE",
"340 30 OFFCURVE",
"305 5 OFFCURVE",
"226 -2 CURVE",
"160 -6 OFFCURVE",
"114 13 OFFCURVE",
"74 57 CURVE",
"-28 169 OFFCURVE",
"28 459 OFFCURVE",
"226 483 CURVE",
"294 488 OFFCURVE",
"364 471 OFFCURVE",
"398 430 CURVE",
"387 394 OFFCURVE",
"360 344 OFFCURVE",
"341 321 CURVE"
);
}
);
width = 401;
}
);
leftMetricsKey = o;
rightMetricsKey = "=e-5";
unicode = 0063;
},
{
glyphname = d;
lastChange = "2015-11-15 21:03:10 +0000";
layers = (
{
background = {
paths = (
{
closed = 1;
nodes = (
"603 483 LINE",
"523 437 OFFCURVE",
"452 307 OFFCURVE",
"431 276 CURVE",
"454 457 OFFCURVE",
"497 689 OFFCURVE",
"476 708 CURVE SMOOTH",
"464 719 OFFCURVE",
"339 747 OFFCURVE",
"319 740 CURVE",
"309 698 LINE",
"351 668 LINE",
"354 619 OFFCURVE",
"344 479 OFFCURVE",
"329 353 CURVE SMOOTH",
"313 217 OFFCURVE",
"286 45 OFFCURVE",
"284 34 CURVE",
"284 22 OFFCURVE",
"360 -3 OFFCURVE",
"408 -3 CURVE SMOOTH",
"423 -3 OFFCURVE",
"425 43 OFFCURVE",
"418 132 CURVE",
"460 236 OFFCURVE",
"541 334 OFFCURVE",
"569 360 CURVE",
"541 255 OFFCURVE",
"521 75 OFFCURVE",
"540 44 CURVE SMOOTH",
"550 28 OFFCURVE",
"602 -2 OFFCURVE",
"656 -2 CURVE",
"688 7 OFFCURVE",
"707 17 OFFCURVE",
"719 25 CURVE",
"715 70 LINE",
"701 65 OFFCURVE",
"680 59 OFFCURVE",
"665 59 CURVE",
"645 124 OFFCURVE",
"686 371 OFFCURVE",
"706 444 CURVE"
);
}
);
};
guideLines = (
{
position = "{317, 410}";
},
{
angle = -18;
position = "{516, 111}";
},
{
position = "{1184, 374}";
}
);
layerId = "71FD7A9F-05F5-4D76-8D4F-547475A05E4C";
name = "Regular Italic";
paths = (
{
closed = 1;
nodes = (
"255 63 OFFCURVE",
"311 159 OFFCURVE",
"318 167 CURVE",
"318 167 OFFCURVE",
"336 254 OFFCURVE",
"317 261 CURVE",
"299 216 OFFCURVE",
"222 128 OFFCURVE",
"203 111 CURVE",
"196 111 OFFCURVE",
"177 130 OFFCURVE",
"167 160 CURVE SMOOTH",
"140 240 OFFCURVE",
"147 374 OFFCURVE",
"222 417 CURVE",
"269 410 OFFCURVE",
"321 364 OFFCURVE",
"336 328 CURVE",
"336 328 OFFCURVE",
"391 359 OFFCURVE",
"391 415 CURVE",
"360 456 OFFCURVE",
"279 488 OFFCURVE",
"202 484 CURVE",
"28 434 OFFCURVE",
"-28 171 OFFCURVE",
"78 41 CURVE SMOOTH",
"110 2 OFFCURVE",
"140 0 OFFCURVE",
"178 0 CURVE"
);
},
{
closed = 1;
nodes = (
"439 5 OFFCURVE",
"459 15 OFFCURVE",
"477 28 CURVE",
"473 74 LINE",
"458 69 OFFCURVE",
"433 62 OFFCURVE",
"422 62 CURVE",
"399 88 OFFCURVE",
"427 265 OFFCURVE",
"451 432 CURVE SMOOTH",
"464 521 OFFCURVE",
"492 684 OFFCURVE",
"477 707 CURVE SMOOTH",
"470 717 OFFCURVE",
"336 748 OFFCURVE",
"321 740 CURVE",
"311 698 LINE",
"327 688 OFFCURVE",
"337 680 OFFCURVE",
"353 668 CURVE",
"356 607 OFFCURVE",
"342 442 OFFCURVE",
"326 326 CURVE SMOOTH",
"313 235 OFFCURVE",
"277 58 OFFCURVE",
"300 40 CURVE SMOOTH",
"308 34 OFFCURVE",
"359 -2 OFFCURVE",
"414 -2 CURVE"
);
}
);
width = 509;
}
);
leftMetricsKey = o;
rightMetricsKey = i;
unicode = 0064;
},
{
glyphname = e;
lastChange = "2015-11-17 12:14:03 +0000";
layers = (
{
background = {
paths = (
{
closed = 1;
nodes = (
"376 466 OFFCURVE",
"323 497 OFFCURVE",
"213 480 CURVE",
"30 433 OFFCURVE",
"-14 180 OFFCURVE",
"83 60 CURVE SMOOTH",
"129 3 OFFCURVE",
"206 -21 OFFCURVE",
"290 7 CURVE SMOOTH",
"481 70 OFFCURVE",
"490 323 OFFCURVE",
"406 428 CURVE SMOOTH"
);
},
{
closed = 1;
nodes = (
"224 78 OFFCURVE",
"197 97 OFFCURVE",
"177 141 CURVE SMOOTH",
"136 231 OFFCURVE",
"149 361 OFFCURVE",
"229 409 CURVE",
"262 409 OFFCURVE",
"290 395 OFFCURVE",
"312 344 CURVE SMOOTH",
"349 259 OFFCURVE",
"347 129 OFFCURVE",
"263 78 CURVE"
);
}
);
};
layerId = "71FD7A9F-05F5-4D76-8D4F-547475A05E4C";
name = "Regular Italic";
paths = (
{
closed = 1;
nodes = (
"298 336 OFFCURVE",
"282 407 OFFCURVE",
"222 407 CURVE",
"138 353 OFFCURVE",
"141 219 OFFCURVE",
"172 144 CURVE SMOOTH",
"189 104 OFFCURVE",
"227 80 OFFCURVE",
"255 77 CURVE SMOOTH",
"312 70 OFFCURVE",
"364 99 OFFCURVE",
"380 115 CURVE",
"385 63 LINE",
"376 53 OFFCURVE",
"341 23 OFFCURVE",
"297 10 CURVE SMOOTH",
"235 -8 OFFCURVE",
"139 -11 OFFCURVE",
"84 53 CURVE SMOOTH",
"-25 179 OFFCURVE",
"35 433 OFFCURVE",
"214 483 CURVE",
"345 499 OFFCURVE",
"397 441 OFFCURVE",
"409 377 CURVE SMOOTH",
"430 263 OFFCURVE",
"322 152 OFFCURVE",
"150 175 CURVE",
"90 207 OFFCURVE",
"97 206 OFFCURVE",
"144 229 CURVE",
"235 215 OFFCURVE",
"298 280 OFFCURVE",
"298 318 CURVE SMOOTH"
);
}
);
width = 429;
}
);
leftMetricsKey = o;
rightMetricsKey = "=o-5";
unicode = 0065;
},
{
glyphname = f;
lastChange = "2015-11-15 19:05:34 +0000";
layers = (
{
background = {
paths = (
{
closed = 1;
nodes = (
"149 -217 OFFCURVE",
"177 -133 OFFCURVE",
"193 13 CURVE SMOOTH",
"201 87 OFFCURVE",
"229 343 OFFCURVE",
"233 390 CURVE",
"264 594 OFFCURVE",
"287 638 OFFCURVE",
"318 679 CURVE",
"330 679 OFFCURVE",
"358 671 OFFCURVE",
"382 657 CURVE",
"399 701 LINE",
"375 721 OFFCURVE",
"337 737 OFFCURVE",
"303 743 CURVE",
"196 717 OFFCURVE",
"147 654 OFFCURVE",
"133 494 CURVE SMOOTH",
"97 90 LINE",
"71 -114 OFFCURVE",
"51 -165 OFFCURVE",
"36 -185 CURVE",
"22 -183 OFFCURVE",
"-29 -136 OFFCURVE",
"-66 -106 CURVE",
"-88 -136 OFFCURVE",
"-102 -173 OFFCURVE",
"-110 -202 CURVE",
"-78 -232 OFFCURVE",
"-21 -248 OFFCURVE",
"40 -247 CURVE"
);
}
);
};
layerId = "71FD7A9F-05F5-4D76-8D4F-547475A05E4C";
name = "Regular Italic";
paths = (
{
closed = 1;
nodes = (
"212 400 LINE",
"260 399 OFFCURVE",
"313 398 OFFCURVE",
"335 398 CURVE SMOOTH",
"346 398 OFFCURVE",
"347 414 OFFCURVE",
"355 478 CURVE",
"306 475 OFFCURVE",
"258 474 OFFCURVE",
"241 473 CURVE",
"149 572 LINE",
"131 491 LINE",
"128 470 OFFCURVE",
"119 468 OFFCURVE",
"89 466 CURVE SMOOTH",
"74 465 LINE",
"67 401 LINE",
"71 401 OFFCURVE",
"115 401 OFFCURVE",
"130 401 CURVE"
);
},
{
closed = 1;
nodes = (
"182 710 OFFCURVE",
"146 626 OFFCURVE",
"130 480 CURVE SMOOTH",
"122 406 OFFCURVE",
"106 261 OFFCURVE",
"91 103 CURVE",
"72 -65 OFFCURVE",
"60 -142 OFFCURVE",
"29 -183 CURVE",
"1 -169 OFFCURVE",
"-45 -127 OFFCURVE",
"-71 -103 CURVE",
"-89 -135 OFFCURVE",
"-105 -164 OFFCURVE",
"-116 -202 CURVE",
"-96 -232 OFFCURVE",
"-19 -252 OFFCURVE",
"28 -250 CURVE",
"122 -228 OFFCURVE",
"176 -161 OFFCURVE",
"192 -1 CURVE SMOOTH",
"233 403 LINE",
"257 601 OFFCURVE",
"274 642 OFFCURVE",
"294 672 CURVE",
"308 670 OFFCURVE",
"359 623 OFFCURVE",
"396 593 CURVE",
"414 624 OFFCURVE",
"430 661 OFFCURVE",
"440 695 CURVE",
"408 725 OFFCURVE",
"352 741 OFFCURVE",
"291 740 CURVE"
);
}
);
width = 382;
}
);
rightMetricsKey = "=t-30";
unicode = 0066;
},
{
glyphname = g;
lastChange = "2015-11-17 12:36:56 +0000";
layers = (
{
background = {
paths = (
{
closed = 1;
nodes = (
"270 77 OFFCURVE",
"304 147 OFFCURVE",
"312 153 CURVE",
"312 153 OFFCURVE",
"356 282 OFFCURVE",
"337 289 CURVE",
"321 254 OFFCURVE",
"257 157 OFFCURVE",
"205 110 CURVE",
"198 110 OFFCURVE",
"185 121 OFFCURVE",
"175 144 CURVE SMOOTH",
"136 239 OFFCURVE",
"152 371 OFFCURVE",
"222 414 CURVE",
"272 414 OFFCURVE",
"333 349 OFFCURVE",
"344 316 CURVE",
"344 316 OFFCURVE",
"391 357 OFFCURVE",
"391 413 CURVE",
"349 462 OFFCURVE",
"274 483 OFFCURVE",
"206 483 CURVE",
"32 433 OFFCURVE",
"-23 171 OFFCURVE",
"78 41 CURVE SMOOTH",
"109 1 OFFCURVE",
"142 -3 OFFCURVE",
"180 -3 CURVE"
);
},
{
closed = 1;
nodes = (
"434 5 OFFCURVE",
"460 17 OFFCURVE",
"476 28 CURVE",
"472 74 LINE",
"459 69 OFFCURVE",
"433 62 OFFCURVE",
"418 62 CURVE",
"390 91 OFFCURVE",
"434 322 OFFCURVE",
"442 352 CURVE SMOOTH",
"450 383 OFFCURVE",
"459 424 OFFCURVE",
"470 456 CURVE",
"458 467 OFFCURVE",
"437 475 OFFCURVE",
"424 479 CURVE SMOOTH",
"406 484 OFFCURVE",
"339 399 OFFCURVE",
"334 371 CURVE",
"329 364 OFFCURVE",
"327 362 OFFCURVE",
"326 347 CURVE SMOOTH",
"319 243 OFFCURVE",
"278 68 OFFCURVE",
"294 42 CURVE SMOOTH",
"304 26 OFFCURVE",
"355 -2 OFFCURVE",
"405 -1 CURVE"
);
},
{
closed = 1;
nodes = (
"385 710 OFFCURVE",
"349 626 OFFCURVE",
"333 480 CURVE SMOOTH",
"325 406 OFFCURVE",
"309 261 OFFCURVE",
"294 103 CURVE",
"275 -65 OFFCURVE",
"263 -142 OFFCURVE",
"232 -183 CURVE",
"204 -169 OFFCURVE",
"158 -127 OFFCURVE",
"132 -103 CURVE",
"114 -135 OFFCURVE",
"98 -164 OFFCURVE",
"87 -202 CURVE",
"107 -232 OFFCURVE",
"184 -252 OFFCURVE",
"231 -250 CURVE",
"325 -228 OFFCURVE",
"379 -161 OFFCURVE",
"395 -1 CURVE SMOOTH",
"436 403 LINE",
"460 601 OFFCURVE",
"477 642 OFFCURVE",
"497 672 CURVE",
"511 670 OFFCURVE",
"562 623 OFFCURVE",
"599 593 CURVE",
"617 624 OFFCURVE",
"633 661 OFFCURVE",
"643 695 CURVE",
"611 725 OFFCURVE",
"555 741 OFFCURVE",
"494 740 CURVE"
);
}
);
};
layerId = "71FD7A9F-05F5-4D76-8D4F-547475A05E4C";
name = "Regular Italic";
paths = (
{
closed = 1;
nodes = (
"412 482 OFFCURVE",
"390 459 OFFCURVE",
"371 433 CURVE",
"328 468 OFFCURVE",
"265 483 OFFCURVE",
"207 483 CURVE",
"33 433 OFFCURVE",
"-26 170 OFFCURVE",
"75 40 CURVE SMOOTH",
"87 24 OFFCURVE",
"106 12 OFFCURVE",
"119 5 CURVE",
"103 -9 OFFCURVE",
"78 -27 OFFCURVE",
"54 -51 CURVE SMOOTH",
"49 -56 OFFCURVE",
"19 -90 OFFCURVE",
"3 -108 CURVE",
"5 -156 LINE",
"13 -166 OFFCURVE",
"23 -175 OFFCURVE",
"29 -180 CURVE SMOOTH",
"53 -200 OFFCURVE",
"131 -253 OFFCURVE",
"235 -253 CURVE",
"344 -222 OFFCURVE",
"386 -76 OFFCURVE",
"402 70 CURVE SMOOTH",
"409 134 OFFCURVE",
"416 240 OFFCURVE",
"441 352 CURVE SMOOTH",
"448 383 OFFCURVE",
"457 424 OFFCURVE",
"467 456 CURVE",
"455 467 OFFCURVE",
"434 475 OFFCURVE",
"421 479 CURVE SMOOTH"
);
},
{
closed = 1;
nodes = (
"133 238 OFFCURVE",
"153 371 OFFCURVE",
"223 414 CURVE",
"259 414 OFFCURVE",
"301 380 OFFCURVE",
"325 349 CURVE",
"325 347 LINE",
"324 324 OFFCURVE",
"319 284 OFFCURVE",
"315 240 CURVE",
"297 212 OFFCURVE",
"225 122 OFFCURVE",
"207 106 CURVE",
"198 106 OFFCURVE",
"182 120 OFFCURVE",
"172 143 CURVE SMOOTH"
);
},
{
closed = 1;
nodes = (
"149 -43 OFFCURVE",
"192 -4 OFFCURVE",
"300 130 CURVE",
"276 -84 OFFCURVE",
"252 -163 OFFCURVE",
"236 -186 CURVE",
"210 -177 OFFCURVE",
"141 -125 OFFCURVE",
"106 -87 CURVE"
);
}
);
width = 454;
}
);
leftMetricsKey = a;
rightMetricsKey = a;
unicode = 0067;
},
{
glyphname = h;
lastChange = "2015-11-15 20:59:44 +0000";
layers = (
{
background = {
paths = (
{
closed = 1;
nodes = (
"201 -2 OFFCURVE",
"228 37 OFFCURVE",
"244 85 CURVE",
"247 97 OFFCURVE",
"233 99 OFFCURVE",
"217 105 CURVE SMOOTH",
"211 107 OFFCURVE",
"208 104 OFFCURVE",
"205 97 CURVE SMOOTH",
"195 74 OFFCURVE",
"187 64 OFFCURVE",
"179 64 CURVE SMOOTH",
"171 64 OFFCURVE",
"156 81 OFFCURVE",
"155 127 CURVE SMOOTH",
"154 183 OFFCURVE",
"170 300 OFFCURVE",
"187 432 CURVE SMOOTH",
"198 521 OFFCURVE",
"230 675 OFFCURVE",
"217 698 CURVE SMOOTH",
"208 711 OFFCURVE",
"64 746 OFFCURVE",
"52 739 CURVE",
"52 739 OFFCURVE",
"29 702 OFFCURVE",
"47 695 CURVE SMOOTH",
"74 685 OFFCURVE",
"85 637 OFFCURVE",
"83 559 CURVE SMOOTH",
"81 493 OFFCURVE",
"75 442 OFFCURVE",
"60 326 CURVE SMOOTH",
"48 234 OFFCURVE",
"16 54 OFFCURVE",
"40 36 CURVE SMOOTH",
"48 30 OFFCURVE",
"105 -7 OFFCURVE",
"162 -4 CURVE SMOOTH"
);
}
);
};
layerId = "71FD7A9F-05F5-4D76-8D4F-547475A05E4C";
name = "Regular Italic";
paths = (
{
closed = 1;
nodes = (
"352 483 LINE",
"272 437 OFFCURVE",
"201 307 OFFCURVE",
"180 276 CURVE",
"203 457 OFFCURVE",
"246 689 OFFCURVE",
"225 708 CURVE SMOOTH",
"213 719 OFFCURVE",
"88 747 OFFCURVE",
"68 740 CURVE",
"58 698 LINE",
"100 668 LINE",
"103 619 OFFCURVE",
"93 479 OFFCURVE",
"78 353 CURVE SMOOTH",
"62 217 OFFCURVE",
"35 45 OFFCURVE",
"33 34 CURVE",
"33 22 OFFCURVE",
"109 -3 OFFCURVE",
"157 -3 CURVE SMOOTH",
"172 -3 OFFCURVE",
"174 43 OFFCURVE",
"167 132 CURVE",
"209 236 OFFCURVE",
"290 334 OFFCURVE",
"318 360 CURVE",
"290 255 OFFCURVE",
"270 75 OFFCURVE",
"289 44 CURVE SMOOTH",
"299 28 OFFCURVE",
"351 -2 OFFCURVE",
"405 -2 CURVE",
"437 7 OFFCURVE",
"456 17 OFFCURVE",
"468 25 CURVE",
"464 70 LINE",
"450 65 OFFCURVE",
"429 59 OFFCURVE",
"414 59 CURVE",
"394 124 OFFCURVE",
"435 371 OFFCURVE",
"455 444 CURVE"
);
}
);
width = 501;
}
);
leftKerningGroup = l;
leftMetricsKey = l;
rightKerningGroup = i;
rightMetricsKey = i;
unicode = 0068;
},
{
glyphname = i;
lastChange = "2015-11-15 20:55:57 +0000";
layers = (
{
background = {
paths = (
{
closed = 1;
nodes = (
"198 461 OFFCURVE",
"132 479 OFFCURVE",
"84 479 CURVE",
"63 471 OFFCURVE",
"77 317 OFFCURVE",
"79 309 CURVE",
"69 270 OFFCURVE",
"48 159 OFFCURVE",
"45 112 CURVE SMOOTH",
"39 27 OFFCURVE",
"83 0 OFFCURVE",
"155 0 CURVE",
"194 8 OFFCURVE",
"215 21 OFFCURVE",
"227 30 CURVE",
"223 83 LINE",
"209 76 OFFCURVE",
"183 68 OFFCURVE",
"167 68 CURVE",
"152 122 OFFCURVE",
"195 379 OFFCURVE",
"212 444 CURVE"
);
}
);
};
guideLines = (
{
angle = -20;
position = "{80, 30}";
}
);
layerId = "71FD7A9F-05F5-4D76-8D4F-547475A05E4C";
name = "Regular Italic";
paths = (
{
closed = 1;
nodes = (
"78 481 OFFCURVE",
"190 463 OFFCURVE",
"208 450 CURVE",
"206 433 OFFCURVE",
"148 125 OFFCURVE",
"167 63 CURVE",
"182 63 OFFCURVE",
"205 70 OFFCURVE",
"221 75 CURVE",
"225 29 LINE",
"209 17 OFFCURVE",
"176 2 OFFCURVE",
"158 -1 CURVE",
"112 -2 OFFCURVE",
"77 14 OFFCURVE",
"55 30 CURVE SMOOTH",
"28 50 OFFCURVE",
"69 311 OFFCURVE",
"87 406 CURVE",
"45 433 LINE",
"58 476 LINE"
);
},
{
closed = 1;
nodes = (
"184 692 LINE",
"179 705 OFFCURVE",
"173 713 OFFCURVE",
"159 708 CURVE SMOOTH",
"142 702 OFFCURVE",
"109 687 OFFCURVE",
"94 677 CURVE SMOOTH",
"79 667 OFFCURVE",
"79 658 OFFCURVE",
"86 649 CURVE",
"141 560 LINE",
"150 559 OFFCURVE",
"208 598 OFFCURVE",
"220 610 CURVE"
);
}
);
width = 257;
}
);
leftKerningGroup = i;
rightKerningGroup = i;
unicode = 0069;
},
{
glyphname = j;
lastChange = "2015-11-15 20:55:35 +0000";
layers = (
{
background = {
paths = (
{
closed = 1;
nodes = (
"399 474 OFFCURVE",
"356 483 OFFCURVE",
"321 480 CURVE",
"262 439 OFFCURVE",
"224 359 OFFCURVE",
"198 299 CURVE",
"201 317 OFFCURVE",
"219 439 OFFCURVE",
"211 447 CURVE SMOOTH",
"199 459 OFFCURVE",
"63 484 OFFCURVE",
"52 479 CURVE",
"52 479 OFFCURVE",
"33 435 OFFCURVE",
"48 425 CURVE SMOOTH",
"63 418 OFFCURVE",
"86 405 OFFCURVE",
"85 354 CURVE SMOOTH",
"84 296 OFFCURVE",
"71 145 OFFCURVE",
"58 55 CURVE SMOOTH",
"40 -67 OFFCURVE",
"14 -195 OFFCURVE",
"21 -203 CURVE SMOOTH",
"33 -213 OFFCURVE",
"166 -262 OFFCURVE",
"179 -252 CURVE",
"179 -252 OFFCURVE",
"203 -207 OFFCURVE",
"188 -201 CURVE SMOOTH",
"170 -192 OFFCURVE",
"155 -134 OFFCURVE",
"154 -86 CURVE SMOOTH",
"153 -45 OFFCURVE",
"155 -21 OFFCURVE",
"159 28 CURVE",
"204 4 OFFCURVE",
"252 -6 OFFCURVE",
"302 -4 CURVE",
"474 46 OFFCURVE",
"533 304 OFFCURVE",
"425 441 CURVE SMOOTH"
);
},
{
closed = 1;
nodes = (
"399 474 OFFCURVE",
"356 483 OFFCURVE",
"321 480 CURVE",
"262 439 OFFCURVE",
"224 359 OFFCURVE",
"198 299 CURVE",
"201 317 OFFCURVE",
"219 439 OFFCURVE",
"211 447 CURVE SMOOTH",
"199 459 OFFCURVE",
"63 484 OFFCURVE",
"52 479 CURVE",
"52 479 OFFCURVE",
"33 435 OFFCURVE",
"48 425 CURVE SMOOTH",
"63 418 OFFCURVE",
"86 405 OFFCURVE",
"85 354 CURVE SMOOTH",
"84 296 OFFCURVE",
"71 145 OFFCURVE",
"58 55 CURVE SMOOTH",
"40 -67 OFFCURVE",
"14 -195 OFFCURVE",
"21 -203 CURVE SMOOTH",
"33 -213 OFFCURVE",
"166 -262 OFFCURVE",
"179 -252 CURVE",
"179 -252 OFFCURVE",
"203 -207 OFFCURVE",
"188 -201 CURVE SMOOTH",
"170 -192 OFFCURVE",
"155 -134 OFFCURVE",
"154 -86 CURVE SMOOTH",
"153 -45 OFFCURVE",
"155 -21 OFFCURVE",
"159 28 CURVE",
"204 4 OFFCURVE",
"252 -6 OFFCURVE",
"302 -4 CURVE",
"474 46 OFFCURVE",
"533 304 OFFCURVE",
"425 441 CURVE SMOOTH"
);
}
);
};
guideLines = (
{
alignment = center;
angle = -12;
position = "{236, 497}";
},
{
angle = -103;
position = "{25, 345}";
}
);
layerId = "71FD7A9F-05F5-4D76-8D4F-547475A05E4C";
name = "Regular Italic";
paths = (
{
closed = 1;
nodes = (
"188 692 LINE",
"183 705 OFFCURVE",
"177 713 OFFCURVE",
"163 708 CURVE SMOOTH",
"146 702 OFFCURVE",
"113 687 OFFCURVE",
"98 677 CURVE SMOOTH",
"83 667 OFFCURVE",
"83 658 OFFCURVE",
"90 649 CURVE",
"145 560 LINE",
"154 559 OFFCURVE",
"212 598 OFFCURVE",
"224 610 CURVE"
);
},
{
closed = 1;
nodes = (
"169 469 OFFCURVE",
"86 480 OFFCURVE",
"55 477 CURVE",
"45 436 LINE",
"81 407 LINE",
"84 395 OFFCURVE",
"86 359 OFFCURVE",
"85 336 CURVE SMOOTH",
"83 300 OFFCURVE",
"78 191 OFFCURVE",
"74 144 CURVE",
"45 -58 OFFCURVE",
"30 -101 OFFCURVE",
"9 -129 CURVE",
"-3 -129 OFFCURVE",
"-17 -123 OFFCURVE",
"-41 -109 CURVE",
"-58 -153 LINE",
"-34 -173 OFFCURVE",
"-6 -187 OFFCURVE",
"13 -193 CURVE",
"120 -167 OFFCURVE",
"150 -113 OFFCURVE",
"174 113 CURVE",
"187 247 OFFCURVE",
"211 428 OFFCURVE",
"209 452 CURVE"
);
}
);
width = 229;
}
);
rightMetricsKey = "=i+30";
unicode = 006A;
},
{
glyphname = k;
lastChange = "2015-11-09 17:56:10 +0000";
layers = (
{
background = {
paths = (
{
closed = 1;
nodes = (
"93 744 OFFCURVE",
"211 724 OFFCURVE",
"229 711 CURVE",
"227 694 OFFCURVE",
"169 386 OFFCURVE",
"188 324 CURVE",
"203 324 OFFCURVE",
"226 331 OFFCURVE",
"242 336 CURVE",
"246 290 LINE",
"230 278 OFFCURVE",
"197 263 OFFCURVE",
"179 260 CURVE",
"133 259 OFFCURVE",
"92 277 OFFCURVE",
"70 293 CURVE SMOOTH",
"43 313 OFFCURVE",
"84 506 OFFCURVE",
"97 606 CURVE SMOOTH",
"102 645 OFFCURVE",
"98 677 OFFCURVE",
"61 689 CURVE",
"73 739 LINE"
);
}
);
};
layerId = "71FD7A9F-05F5-4D76-8D4F-547475A05E4C";
name = "Regular Italic";
paths = (
{
closed = 1;
nodes = (
"458 74 LINE",
"444 69 OFFCURVE",
"428 65 OFFCURVE",
"413 63 CURVE",
"396 78 OFFCURVE",
"376 123 OFFCURVE",
"374 178 CURVE",
"464 218 OFFCURVE",
"475 429 OFFCURVE",
"463 465 CURVE",
"370 480 LINE",
"302 484 OFFCURVE",
"209 319 OFFCURVE",
"192 265 CURVE",
"213 446 OFFCURVE",
"256 688 OFFCURVE",
"241 699 CURVE SMOOTH",
"228 708 OFFCURVE",
"95 746 OFFCURVE",
"75 739 CURVE",
"64 692 LINE",
"103 674 OFFCURVE",
"124 619 OFFCURVE",
"91 353 CURVE SMOOTH",
"74 217 OFFCURVE",
"46 42 OFFCURVE",
"44 31 CURVE",
"44 19 OFFCURVE",
"127 -3 OFFCURVE",
"170 -3 CURVE SMOOTH",
"185 -3 OFFCURVE",
"187 28 OFFCURVE",
"180 117 CURVE",
"209 260 OFFCURVE",
"312 380 OFFCURVE",
"339 392 CURVE",
"348 380 OFFCURVE",
"348 234 OFFCURVE",
"308 199 CURVE",
"263 204 LINE",
"262 156 OFFCURVE",
"278 42 OFFCURVE",
"291 31 CURVE",
"311 19 OFFCURVE",
"346 -1 OFFCURVE",
"395 -1 CURVE",
"430 7 OFFCURVE",
"446 18 OFFCURVE",
"462 28 CURVE"
);
}
);
width = 525;
}
);
leftKerningGroup = l;
leftMetricsKey = h;
rightKerningGroup = i;
rightMetricsKey = a;
unicode = 006B;
},
{
glyphname = l;
lastChange = "2015-11-08 23:57:17 +0000";
layers = (
{
background = {
paths = (
{
closed = 1;
nodes = (
"74 483 OFFCURVE",
"192 463 OFFCURVE",
"210 450 CURVE",
"208 433 OFFCURVE",
"150 130 OFFCURVE",
"169 68 CURVE",
"184 68 OFFCURVE",
"204 75 OFFCURVE",
"220 80 CURVE",
"224 29 LINE",
"208 17 OFFCURVE",
"178 2 OFFCURVE",
"160 -1 CURVE",
"114 -2 OFFCURVE",
"73 16 OFFCURVE",
"51 32 CURVE SMOOTH",
"24 52 OFFCURVE",
"65 245 OFFCURVE",
"78 345 CURVE SMOOTH",
"83 384 OFFCURVE",
"79 416 OFFCURVE",
"42 428 CURVE",
"54 478 LINE"
);
}
);
};
guideLines = (
{
angle = -18;
position = "{100, 0}";
},
{
angle = -103;
position = "{37, 624}";
}
);
layerId = "71FD7A9F-05F5-4D76-8D4F-547475A05E4C";
name = "Regular Italic";
paths = (
{
closed = 1;
nodes = (
"177 2 OFFCURVE",
"203 11 OFFCURVE",
"229 29 CURVE",
"225 75 LINE",
"207 69 OFFCURVE",
"181 63 OFFCURVE",
"169 63 CURVE",
"163 156 OFFCURVE",
"187 299 OFFCURVE",
"203 431 CURVE SMOOTH",
"214 520 OFFCURVE",
"240 677 OFFCURVE",
"227 700 CURVE SMOOTH",
"218 713 OFFCURVE",
"80 742 OFFCURVE",
"68 735 CURVE",
"57 689 LINE",
"84 679 OFFCURVE",
"98 637 OFFCURVE",
"96 559 CURVE SMOOTH",
"94 493 OFFCURVE",
"88 442 OFFCURVE",
"73 326 CURVE SMOOTH",
"61 234 OFFCURVE",
"26 50 OFFCURVE",
"50 32 CURVE SMOOTH",
"58 26 OFFCURVE",
"109 -4 OFFCURVE",
"160 -1 CURVE"
);
}
);
width = 274;
}
);
leftKerningGroup = l;
leftMetricsKey = "=i-15";
rightKerningGroup = i;
rightMetricsKey = i;
unicode = 006C;
},
{
glyphname = m;
lastChange = "2015-11-15 16:55:24 +0000";
layers = (
{
background = {
paths = (
{
closed = 1;
nodes = (
"484 70 LINE",
"470 65 OFFCURVE",
"450 59 OFFCURVE",
"433 59 CURVE",
"409 113 OFFCURVE",
"453 368 OFFCURVE",
"474 444 CURVE",
"370 482 LINE",
"336 482 OFFCURVE",
"233 348 OFFCURVE",
"190 273 CURVE",
"191 282 OFFCURVE",
"216 441 OFFCURVE",
"206 452 CURVE SMOOTH",
"195 463 OFFCURVE",
"64 487 OFFCURVE",
"50 480 CURVE",
"40 435 LINE",
"62 428 OFFCURVE",
"86 412 OFFCURVE",
"82 345 CURVE SMOOTH",
"73 210 OFFCURVE",
"47 45 OFFCURVE",
"45 34 CURVE SMOOTH",
"45 22 OFFCURVE",
"126 -3 OFFCURVE",
"169 -3 CURVE SMOOTH",
"184 -3 OFFCURVE",
"187 44 OFFCURVE",
"180 133 CURVE",
"243 271 OFFCURVE",
"300 323 OFFCURVE",
"332 359 CURVE",
"315 305 OFFCURVE",
"284 85 OFFCURVE",
"305 42 CURVE SMOOTH",
"310 33 OFFCURVE",
"360 -2 OFFCURVE",
"425 -2 CURVE",
"457 7 OFFCURVE",
"474 16 OFFCURVE",
"488 25 CURVE"
);
}
);
};
guideLines = (
{
angle = -18;
position = "{-97, 0}";
},
{
position = "{1088, 369}";
}
);
layerId = "71FD7A9F-05F5-4D76-8D4F-547475A05E4C";
name = "Regular Italic";
paths = (
{
closed = 1;
nodes = (
"675 74 LINE",
"662 69 OFFCURVE",
"638 62 OFFCURVE",
"624 62 CURVE",
"601 114 OFFCURVE",
"647 372 OFFCURVE",
"665 449 CURVE",
"563 482 LINE",
"521 459 OFFCURVE",
"438 343 OFFCURVE",
"417 307 CURVE",
"426 370 OFFCURVE",
"431 412 OFFCURVE",
"439 452 CURVE",
"348 483 LINE",
"281 431 OFFCURVE",
"189 268 OFFCURVE",
"192 285 CURVE SMOOTH",
"193 294 OFFCURVE",
"216 441 OFFCURVE",
"206 452 CURVE SMOOTH",
"196 462 OFFCURVE",
"64 487 OFFCURVE",
"52 480 CURVE",
"41 436 LINE",
"56 428 OFFCURVE",
"86 416 OFFCURVE",
"82 345 CURVE SMOOTH",
"74 211 OFFCURVE",
"47 42 OFFCURVE",
"46 30 CURVE SMOOTH",
"45 19 OFFCURVE",
"126 -2 OFFCURVE",
"172 -2 CURVE SMOOTH",
"187 -2 OFFCURVE",
"192 59 OFFCURVE",
"185 149 CURVE",
"233 238 OFFCURVE",
"286 309 OFFCURVE",
"312 335 CURVE",
"310 326 OFFCURVE",
"302 261 OFFCURVE",
"299 239 CURVE",
"274 106 OFFCURVE",
"270 43 OFFCURVE",
"269 31 CURVE SMOOTH",
"269 20 OFFCURVE",
"344 -3 OFFCURVE",
"389 -3 CURVE SMOOTH",
"405 -3 OFFCURVE",
"406 71 OFFCURVE",
"398 161 CURVE",
"450 280 OFFCURVE",
"510 337 OFFCURVE",
"534 359 CURVE",
"520 306 OFFCURVE",
"485 95 OFFCURVE",
"501 53 CURVE SMOOTH",
"513 27 OFFCURVE",
"558 -2 OFFCURVE",
"616 -2 CURVE",
"639 4 OFFCURVE",
"662 16 OFFCURVE",
"679 28 CURVE"
);
}
);
width = 711;
}
);
leftKerningGroup = i;
leftMetricsKey = i;
rightKerningGroup = i;
rightMetricsKey = i;
unicode = 006D;
},
{
glyphname = n;
lastChange = "2015-11-15 17:42:57 +0000";
layers = (
{
background = {
paths = (
{
closed = 1;
nodes = (
"481 454 OFFCURVE",
"422 482 OFFCURVE",
"383 482 CURVE",
"339 370 LINE",
"309 265 OFFCURVE",
"269 75 OFFCURVE",
"288 44 CURVE SMOOTH",
"298 28 OFFCURVE",
"357 -2 OFFCURVE",
"411 -2 CURVE",
"443 7 OFFCURVE",
"462 20 OFFCURVE",
"474 28 CURVE",
"470 79 LINE",
"456 74 OFFCURVE",
"434 67 OFFCURVE",
"419 67 CURVE",
"399 132 OFFCURVE",
"455 354 OFFCURVE",
"475 427 CURVE"
);
}
);
};
guideLines = (
{
angle = -12;
position = "{360, 29}";
},
{
position = "{885, 369}";
}
);
layerId = "71FD7A9F-05F5-4D76-8D4F-547475A05E4C";
name = "Regular Italic";
paths = (
{
closed = 1;
nodes = (
"486 70 LINE",
"472 65 OFFCURVE",
"452 59 OFFCURVE",
"435 59 CURVE",
"411 113 OFFCURVE",
"455 368 OFFCURVE",
"476 444 CURVE",
"376 482 LINE",
"342 482 OFFCURVE",
"239 348 OFFCURVE",
"196 273 CURVE",
"197 282 OFFCURVE",
"222 441 OFFCURVE",
"212 452 CURVE SMOOTH",
"201 463 OFFCURVE",
"70 487 OFFCURVE",
"56 480 CURVE",
"46 435 LINE",
"68 428 OFFCURVE",
"92 412 OFFCURVE",
"88 345 CURVE SMOOTH",
"79 210 OFFCURVE",
"53 45 OFFCURVE",
"51 34 CURVE SMOOTH",
"51 22 OFFCURVE",
"132 -3 OFFCURVE",
"175 -3 CURVE SMOOTH",
"190 -3 OFFCURVE",
"193 44 OFFCURVE",
"186 133 CURVE",
"249 271 OFFCURVE",
"306 323 OFFCURVE",
"338 359 CURVE",
"321 305 OFFCURVE",
"290 85 OFFCURVE",
"311 42 CURVE SMOOTH",
"316 33 OFFCURVE",
"362 -2 OFFCURVE",
"427 -2 CURVE",
"459 7 OFFCURVE",
"476 16 OFFCURVE",
"490 25 CURVE"
);
}
);
width = 523;
}
);
leftKerningGroup = i;
leftMetricsKey = i;
rightKerningGroup = i;
rightMetricsKey = i;
unicode = 006E;
},
{
glyphname = o;
lastChange = "2015-11-15 19:43:25 +0000";
layers = (
{
layerId = "71FD7A9F-05F5-4D76-8D4F-547475A05E4C";
name = "Regular Italic";
paths = (
{
closed = 1;
nodes = (
"367 458 OFFCURVE",
"318 502 OFFCURVE",
"209 480 CURVE SMOOTH",
"23 442 OFFCURVE",
"-24 184 OFFCURVE",
"78 59 CURVE SMOOTH",
"125 1 OFFCURVE",
"198 -21 OFFCURVE",
"282 7 CURVE SMOOTH",
"470 70 OFFCURVE",
"481 315 OFFCURVE",
"397 420 CURVE SMOOTH"
);
},
{
closed = 1;
nodes = (
"214 75 OFFCURVE",
"187 92 OFFCURVE",
"166 143 CURVE SMOOTH",
"129 234 OFFCURVE",
"141 364 OFFCURVE",
"217 406 CURVE",
"253 406 OFFCURVE",
"282 395 OFFCURVE",
"304 344 CURVE SMOOTH",
"341 259 OFFCURVE",
"339 126 OFFCURVE",
"255 75 CURVE"
);
}
);
width = 473;
}
);
leftKerningGroup = o;
rightKerningGroup = o;
unicode = 006F;
},
{
glyphname = p;
lastChange = "2015-11-15 16:39:35 +0000";
layers = (
{
background = {
paths = (
{
closed = 1;
nodes = (
"67 473 OFFCURVE",
"47 463 OFFCURVE",
"29 450 CURVE",
"33 404 LINE",
"48 409 OFFCURVE",
"73 416 OFFCURVE",
"84 416 CURVE",
"107 390 OFFCURVE",
"80 213 OFFCURVE",
"56 46 CURVE SMOOTH",
"43 -43 OFFCURVE",
"12 -208 OFFCURVE",
"21 -231 CURVE",
"30 -237 OFFCURVE",
"180 -269 OFFCURVE",
"193 -262 CURVE",
"204 -215 LINE",
"188 -208 OFFCURVE",
"164 -187 OFFCURVE",
"158 -110 CURVE SMOOTH",
"153 -44 OFFCURVE",
"161 36 OFFCURVE",
"180 152 CURVE SMOOTH",
"197 243 OFFCURVE",
"229 420 OFFCURVE",
"206 438 CURVE SMOOTH",
"198 444 OFFCURVE",
"147 480 OFFCURVE",
"92 480 CURVE"
);
},
{
closed = 1;
nodes = (
"211 401 OFFCURVE",
"145 229 OFFCURVE",
"137 194 CURVE",
"137 194 OFFCURVE",
"170 235 OFFCURVE",
"189 228 CURVE",
"207 273 OFFCURVE",
"279 352 OFFCURVE",
"302 369 CURVE",
"309 369 OFFCURVE",
"319 363 OFFCURVE",
"330 340 CURVE SMOOTH",
"367 262 OFFCURVE",
"364 110 OFFCURVE",
"285 61 CURVE",
"285 61 LINE SMOOTH",
"285 61 OFFCURVE",
"199 70 OFFCURVE",
"170 150 CURVE",
"170 150 OFFCURVE",
"115 118 OFFCURVE",
"115 62 CURVE",
"146 21 OFFCURVE",
"222 -12 OFFCURVE",
"305 -5 CURVE",
"479 45 OFFCURVE",
"535 307 OFFCURVE",
"428 437 CURVE SMOOTH",
"395 477 OFFCURVE",
"366 482 OFFCURVE",
"328 478 CURVE"
);
}
);
};
guideLines = (
{
angle = -18;
position = "{766, -224}";
},
{
angle = 78;
position = "{39, 445}";
}
);
layerId = "71FD7A9F-05F5-4D76-8D4F-547475A05E4C";
name = "Regular Italic";
paths = (
{
closed = 1;
nodes = (
"400 474 OFFCURVE",
"361 483 OFFCURVE",
"326 480 CURVE",
"279 439 OFFCURVE",
"254 408 OFFCURVE",
"210 347 CURVE",
"213 365 OFFCURVE",
"220 439 OFFCURVE",
"212 447 CURVE SMOOTH",
"200 459 OFFCURVE",
"68 484 OFFCURVE",
"57 479 CURVE",
"46 435 LINE",
"61 428 OFFCURVE",
"87 405 OFFCURVE",
"86 354 CURVE SMOOTH",
"85 296 OFFCURVE",
"72 145 OFFCURVE",
"59 55 CURVE SMOOTH",
"41 -67 OFFCURVE",
"15 -195 OFFCURVE",
"22 -203 CURVE SMOOTH",
"34 -213 OFFCURVE",
"170 -262 OFFCURVE",
"183 -252 CURVE",
"195 -201 LINE",
"177 -192 OFFCURVE",
"156 -134 OFFCURVE",
"155 -86 CURVE SMOOTH",
"154 -45 OFFCURVE",
"156 -21 OFFCURVE",
"160 28 CURVE",
"205 4 OFFCURVE",
"253 -6 OFFCURVE",
"303 -4 CURVE",
"475 46 OFFCURVE",
"534 304 OFFCURVE",
"426 441 CURVE SMOOTH"
);
},
{
closed = 1;
nodes = (
"248 67 OFFCURVE",
"203 99 OFFCURVE",
"176 138 CURVE",
"192 227 LINE",
"219 284 OFFCURVE",
"297 364 OFFCURVE",
"302 369 CURVE",
"313 364 OFFCURVE",
"324 354 OFFCURVE",
"333 332 CURVE SMOOTH",
"366 250 OFFCURVE",
"362 113 OFFCURVE",
"284 63 CURVE"
);
}
);
width = 508;
}
);
leftKerningGroup = i;
leftMetricsKey = i;
rightKerningGroup = o;
rightMetricsKey = o;
unicode = 0070;
},
{
glyphname = q;
lastChange = "2015-11-17 12:56:45 +0000";
layers = (
{
background = {
paths = (
{
closed = 1;
nodes = (
"268 78 OFFCURVE",
"302 148 OFFCURVE",
"310 154 CURVE",
"310 154 OFFCURVE",
"354 283 OFFCURVE",
"335 290 CURVE",
"319 255 OFFCURVE",
"255 158 OFFCURVE",
"203 111 CURVE",
"196 111 OFFCURVE",
"183 122 OFFCURVE",
"173 145 CURVE SMOOTH",
"134 240 OFFCURVE",
"150 372 OFFCURVE",
"220 415 CURVE",
"270 415 OFFCURVE",
"331 350 OFFCURVE",
"342 317 CURVE",
"342 317 OFFCURVE",
"389 358 OFFCURVE",
"389 414 CURVE",
"347 463 OFFCURVE",
"272 484 OFFCURVE",
"204 484 CURVE",
"30 434 OFFCURVE",
"-25 172 OFFCURVE",
"76 42 CURVE SMOOTH",
"107 2 OFFCURVE",
"140 -2 OFFCURVE",
"178 -2 CURVE"
);
},
{
closed = 1;
nodes = (
"432 6 OFFCURVE",
"458 18 OFFCURVE",
"474 29 CURVE",
"470 75 LINE",
"457 70 OFFCURVE",
"431 63 OFFCURVE",
"416 63 CURVE",
"388 92 OFFCURVE",
"432 323 OFFCURVE",
"440 353 CURVE SMOOTH",
"448 384 OFFCURVE",
"457 425 OFFCURVE",
"468 457 CURVE",
"456 468 OFFCURVE",
"435 476 OFFCURVE",
"422 480 CURVE SMOOTH",
"404 485 OFFCURVE",
"337 400 OFFCURVE",
"332 372 CURVE",
"327 365 OFFCURVE",
"325 363 OFFCURVE",
"324 348 CURVE SMOOTH",
"317 244 OFFCURVE",
"276 69 OFFCURVE",
"292 43 CURVE SMOOTH",
"302 27 OFFCURVE",
"353 -1 OFFCURVE",
"403 0 CURVE"
);
}
);
};
layerId = "71FD7A9F-05F5-4D76-8D4F-547475A05E4C";
name = "Regular Italic";
paths = (
{
closed = 1;
nodes = (
"403 -196 OFFCURVE",
"393 -191 OFFCURVE",
"378 -180 CURVE",
"382 37 OFFCURVE",
"410 292 OFFCURVE",
"467 458 CURVE",
"467 464 OFFCURVE",
"437 477 OFFCURVE",
"426 481 CURVE SMOOTH",
"414 485 OFFCURVE",
"397 471 OFFCURVE",
"369 436 CURVE",
"316 473 OFFCURVE",
"267 485 OFFCURVE",
"204 484 CURVE",
"30 435 OFFCURVE",
"-31 169 OFFCURVE",
"81 36 CURVE SMOOTH",
"108 4 OFFCURVE",
"143 -3 OFFCURVE",
"179 -2 CURVE",
"217 29 OFFCURVE",
"259 78 OFFCURVE",
"294 132 CURVE",
"276 -21 OFFCURVE",
"243 -204 OFFCURVE",
"256 -217 CURVE SMOOTH",
"269 -230 OFFCURVE",
"395 -255 OFFCURVE",
"407 -249 CURVE",
"407 -249 OFFCURVE",
"414 -220 OFFCURVE",
"418 -207 CURVE"
);
},
{
closed = 1;
nodes = (
"192 112 OFFCURVE",
"178 133 OFFCURVE",
"170 154 CURVE SMOOTH",
"140 233 OFFCURVE",
"145 370 OFFCURVE",
"221 417 CURVE",
"262 413 OFFCURVE",
"305 378 OFFCURVE",
"328 344 CURVE",
"314 255 LINE",
"283 195 OFFCURVE",
"216 124 OFFCURVE",
"204 112 CURVE"
);
}
);
width = 465;
}
);
leftMetricsKey = o;
rightMetricsKey = "=i-10";
unicode = 0071;
},
{
glyphname = r;
lastChange = "2015-11-15 16:52:55 +0000";
layers = (
{
background = {
paths = (
{
closed = 1;
nodes = (
"343 356 LINE",
"339 268 OFFCURVE",
"303 132 OFFCURVE",
"250 76 CURVE",
"224 203 OFFCURVE",
"222 314 OFFCURVE",
"200 460 CURVE",
"189 471 OFFCURVE",
"57 487 OFFCURVE",
"44 480 CURVE",
"36 429 LINE",
"77 418 OFFCURVE",
"85 394 OFFCURVE",
"95 324 CURVE SMOOTH",
"104 267 OFFCURVE",
"116 152 OFFCURVE",
"135 33 CURVE",
"146 14 OFFCURVE",
"189 -13 OFFCURVE",
"283 -5 CURVE",
"379 117 OFFCURVE",
"392 286 OFFCURVE",
"354 360 CURVE"
);
}
);
};
guideLines = (
{
position = "{-1194, 367}";
},
{
angle = -30;
position = "{277, 371}";
}
);
layerId = "71FD7A9F-05F5-4D76-8D4F-547475A05E4C";
name = "Regular Italic";
paths = (
{
closed = 1;
nodes = (
"68 479 LINE",
"91 479 OFFCURVE",
"207 465 OFFCURVE",
"218 454 CURVE",
"225 438 OFFCURVE",
"212 315 OFFCURVE",
"207 259 CURVE",
"217 304 OFFCURVE",
"256 372 OFFCURVE",
"310 452 CURVE",
"317 458 OFFCURVE",
"362 483 OFFCURVE",
"383 482 CURVE SMOOTH",
"416 480 OFFCURVE",
"445 465 OFFCURVE",
"454 440 CURVE",
"453 428 OFFCURVE",
"414 336 OFFCURVE",
"392 308 CURVE",
"367 326 OFFCURVE",
"342 342 OFFCURVE",
"317 352 CURVE",
"288 326 OFFCURVE",
"239 266 OFFCURVE",
"199 113 CURVE",
"204 44 OFFCURVE",
"203 -3 OFFCURVE",
"187 -4 CURVE SMOOTH",
"149 -6 OFFCURVE",
"64 12 OFFCURVE",
"67 32 CURVE SMOOTH",
"73 74 OFFCURVE",
"98 312 OFFCURVE",
"99 343 CURVE SMOOTH",
"101 394 OFFCURVE",
"97 420 OFFCURVE",
"59 431 CURVE"
);
}
);
width = 446;
}
);
leftKerningGroup = i;
leftMetricsKey = i;
rightKerningGroup = r;
rightMetricsKey = c;
unicode = 0072;
},
{
glyphname = s;
lastChange = "2015-11-15 20:02:44 +0000";
layers = (
{
background = {
paths = (
{
closed = 1;
nodes = (
"115 461 OFFCURVE",
"60 424 OFFCURVE",
"52 347 CURVE SMOOTH",
"43 258 OFFCURVE",
"106 209 OFFCURVE",
"174 183 CURVE SMOOTH",
"210 169 OFFCURVE",
"279 130 OFFCURVE",
"279 116 CURVE",
"270 95 OFFCURVE",
"250 75 OFFCURVE",
"218 75 CURVE",
"195 86 OFFCURVE",
"128 134 OFFCURVE",
"88 167 CURVE",
"62 131 OFFCURVE",
"43 85 OFFCURVE",
"33 50 CURVE",
"66 20 OFFCURVE",
"136 -11 OFFCURVE",
"218 -5 CURVE SMOOTH",
"296 1 OFFCURVE",
"364 53 OFFCURVE",
"373 122 CURVE SMOOTH",
"384 204 OFFCURVE",
"343 253 OFFCURVE",
"262 284 CURVE SMOOTH",
"217 301 OFFCURVE",
"142 344 OFFCURVE",
"142 359 CURVE",
"151 379 OFFCURVE",
"161 385 OFFCURVE",
"198 385 CURVE SMOOTH",
"234 385 OFFCURVE",
"342 340 OFFCURVE",
"373 310 CURVE",
"391 343 OFFCURVE",
"412 410 OFFCURVE",
"412 424 CURVE",
"360 475 OFFCURVE",
"242 503 OFFCURVE",
"152 473 CURVE SMOOTH"
);
}
);
};
layerId = "71FD7A9F-05F5-4D76-8D4F-547475A05E4C";
name = "Regular Italic";
paths = (
{
closed = 1;
nodes = (
"307 22 OFFCURVE",
"363 76 OFFCURVE",
"367 138 CURVE SMOOTH",
"374 240 OFFCURVE",
"297 265 OFFCURVE",
"253 285 CURVE SMOOTH",
"183 317 OFFCURVE",
"138 350 OFFCURVE",
"138 365 CURVE",
"150 394 OFFCURVE",
"172 410 OFFCURVE",
"209 410 CURVE",
"253 401 OFFCURVE",
"307 361 OFFCURVE",
"336 318 CURVE",
"357 354 OFFCURVE",
"376 393 OFFCURVE",
"387 428 CURVE",
"352 461 OFFCURVE",
"291 492 OFFCURVE",
"214 487 CURVE SMOOTH",
"133 482 OFFCURVE",
"63 433 OFFCURVE",
"54 350 CURVE SMOOTH",
"43 249 OFFCURVE",
"120 215 OFFCURVE",
"171 192 CURVE SMOOTH",
"237 162 OFFCURVE",
"282 135 OFFCURVE",
"282 117 CURVE",
"269 88 OFFCURVE",
"235 70 OFFCURVE",
"203 70 CURVE",
"159 83 OFFCURVE",
"103 124 OFFCURVE",
"72 160 CURVE",
"53 127 OFFCURVE",
"22 69 OFFCURVE",
"22 55 CURVE",
"73 4 OFFCURVE",
"182 -22 OFFCURVE",
"267 8 CURVE SMOOTH"
);
}
);
width = 401;
}
);
unicode = 0073;
},
{
glyphname = t;
lastChange = "2015-11-15 17:34:02 +0000";
layers = (
{
background = {
paths = (
{
closed = 1;
nodes = (
"233 461 OFFCURVE",
"167 479 OFFCURVE",
"119 479 CURVE",
"98 471 OFFCURVE",
"112 317 OFFCURVE",
"114 309 CURVE",
"104 270 OFFCURVE",
"83 159 OFFCURVE",
"80 112 CURVE SMOOTH",
"74 27 OFFCURVE",
"111 4 OFFCURVE",
"149 -2 CURVE SMOOTH",
"188 -8 OFFCURVE",
"247 16 OFFCURVE",
"262 30 CURVE",
"264 42 OFFCURVE",
"261 66 OFFCURVE",
"259 80 CURVE SMOOTH",
"259 85 OFFCURVE",
"254 87 OFFCURVE",
"250 84 CURVE SMOOTH",
"232 72 OFFCURVE",
"207 64 OFFCURVE",
"201 79 CURVE",
"175 154 OFFCURVE",
"230 379 OFFCURVE",
"247 444 CURVE"
);
}
);
};
guideLines = (
{
angle = -103;
position = "{30, 345}";
}
);
layerId = "71FD7A9F-05F5-4D76-8D4F-547475A05E4C";
name = "Regular Italic";
paths = (
{
closed = 1;
nodes = (
"266 475 OFFCURVE",
"220 474 OFFCURVE",
"203 473 CURVE",
"207 500 OFFCURVE",
"213 534 OFFCURVE",
"217 565 CURVE",
"110 572 LINE",
"99 494 LINE",
"96 473 OFFCURVE",
"87 468 OFFCURVE",
"57 466 CURVE SMOOTH",
"42 465 LINE",
"35 401 LINE",
"38 401 OFFCURVE",
"63 401 OFFCURVE",
"82 401 CURVE",
"71 344 OFFCURVE",
"40 149 OFFCURVE",
"46 76 CURVE SMOOTH",
"49 36 OFFCURVE",
"89 -3 OFFCURVE",
"162 -3 CURVE",
"202 4 OFFCURVE",
"225 10 OFFCURVE",
"273 32 CURVE",
"267 86 LINE",
"238 74 OFFCURVE",
"209 67 OFFCURVE",
"180 68 CURVE",
"154 104 OFFCURVE",
"182 288 OFFCURVE",
"196 400 CURVE",
"237 400 OFFCURVE",
"276 402 OFFCURVE",
"295 402 CURVE SMOOTH",
"306 402 OFFCURVE",
"307 414 OFFCURVE",
"315 478 CURVE"
);
}
);
width = 315;
}
);
leftKerningGroup = i;
leftMetricsKey = i;
rightMetricsKey = i;
unicode = 0074;
},
{
glyphname = u;
lastChange = "2015-11-15 16:51:51 +0000";
layers = (
{
background = {
paths = (
{
closed = 1;
nodes = (
"24 413 LINE",
"38 418 OFFCURVE",
"58 424 OFFCURVE",
"75 424 CURVE",
"99 370 OFFCURVE",
"55 115 OFFCURVE",
"34 39 CURVE",
"138 1 LINE",
"172 1 OFFCURVE",
"275 135 OFFCURVE",
"318 210 CURVE",
"317 201 OFFCURVE",
"292 42 OFFCURVE",
"302 31 CURVE SMOOTH",
"313 20 OFFCURVE",
"444 -4 OFFCURVE",
"458 3 CURVE",
"468 48 LINE",
"446 55 OFFCURVE",
"422 71 OFFCURVE",
"426 138 CURVE SMOOTH",
"435 273 OFFCURVE",
"461 438 OFFCURVE",
"463 449 CURVE SMOOTH",
"463 461 OFFCURVE",
"382 486 OFFCURVE",
"339 486 CURVE SMOOTH",
"324 486 OFFCURVE",
"321 439 OFFCURVE",
"328 350 CURVE",
"265 212 OFFCURVE",
"220 181 OFFCURVE",
"176 124 CURVE",
"193 178 OFFCURVE",
"224 398 OFFCURVE",
"203 441 CURVE SMOOTH",
"198 450 OFFCURVE",
"148 485 OFFCURVE",
"83 485 CURVE",
"51 476 OFFCURVE",
"34 467 OFFCURVE",
"20 458 CURVE"
);
}
);
};
layerId = "71FD7A9F-05F5-4D76-8D4F-547475A05E4C";
name = "Regular Italic";
paths = (
{
closed = 1;
nodes = (
"188 166 OFFCURVE",
"225 412 OFFCURVE",
"205 448 CURVE",
"195 459 OFFCURVE",
"86 476 OFFCURVE",
"55 476 CURVE",
"44 428 LINE",
"68 420 OFFCURVE",
"97 392 OFFCURVE",
"91 339 CURVE SMOOTH",
"67 134 OFFCURVE",
"38 36 OFFCURVE",
"58 26 CURVE",
"148 -5 LINE",
"208 20 OFFCURVE",
"355 248 OFFCURVE",
"387 363 CURVE",
"356 426 LINE",
"322 269 OFFCURVE",
"198 143 OFFCURVE",
"175 114 CURVE"
);
},
{
closed = 1;
nodes = (
"451 7 OFFCURVE",
"470 20 OFFCURVE",
"482 28 CURVE",
"478 74 LINE",
"464 69 OFFCURVE",
"442 62 OFFCURVE",
"427 62 CURVE",
"411 104 OFFCURVE",
"454 379 OFFCURVE",
"471 444 CURVE",
"457 461 OFFCURVE",
"391 479 OFFCURVE",
"343 479 CURVE",
"328 471 OFFCURVE",
"329 288 OFFCURVE",
"331 280 CURVE",
"310 210 OFFCURVE",
"283 68 OFFCURVE",
"303 36 CURVE SMOOTH",
"313 20 OFFCURVE",
"365 -2 OFFCURVE",
"419 -2 CURVE"
);
}
);
width = 511;
}
);
leftKerningGroup = i;
leftMetricsKey = i;
rightKerningGroup = i;
rightMetricsKey = i;
unicode = 0075;
},
{
glyphname = v;
lastChange = "2015-11-15 15:19:18 +0000";
layers = (
{
background = {
paths = (
{
closed = 1;
nodes = (
"361 373 LINE",
"367 266 OFFCURVE",
"284 42 OFFCURVE",
"248 4 CURVE",
"223 4 LINE",
"312 -13 LINE",
"426 151 OFFCURVE",
"460 379 OFFCURVE",
"458 444 CURVE",
"418 464 OFFCURVE",
"391 474 OFFCURVE",
"336 484 CURVE",
"310 484 OFFCURVE",
"268 478 OFFCURVE",
"250 458 CURVE",
"264 415 OFFCURVE",
"273 390 OFFCURVE",
"294 343 CURVE"
);
}
);
};
layerId = "71FD7A9F-05F5-4D76-8D4F-547475A05E4C";
name = "Regular Italic";
paths = (
{
closed = 1;
nodes = (
"302 484 OFFCURVE",
"262 475 OFFCURVE",
"250 457 CURVE",
"263 418 OFFCURVE",
"274 395 OFFCURVE",
"296 344 CURVE",
"313 354 OFFCURVE",
"339 370 OFFCURVE",
"361 374 CURVE",
"358 309 OFFCURVE",
"312 157 OFFCURVE",
"243 69 CURVE",
"232 143 LINE SMOOTH",
"218 239 OFFCURVE",
"195 414 OFFCURVE",
"180 454 CURVE",
"168 465 OFFCURVE",
"39 484 OFFCURVE",
"26 477 CURVE",
"20 426 LINE",
"62 415 OFFCURVE",
"70 391 OFFCURVE",
"84 324 CURVE SMOOTH",
"96 267 OFFCURVE",
"108 173 OFFCURVE",
"124 33 CURVE",
"136 14 OFFCURVE",
"195 -13 OFFCURVE",
"292 -5 CURVE",
"388 99 OFFCURVE",
"458 320 OFFCURVE",
"458 447 CURVE",
"421 467 OFFCURVE",
"378 477 OFFCURVE",
"336 484 CURVE"
);
}
);
width = 463;
}
);
leftKerningGroup = v;
rightKerningGroup = o;
rightMetricsKey = o;
unicode = 0076;
},
{
glyphname = w;
lastChange = "2015-11-15 15:19:54 +0000";
layers = (
{
background = {
paths = (
{
closed = 1;
nodes = (
"486 484 OFFCURVE",
"446 475 OFFCURVE",
"434 457 CURVE",
"447 418 OFFCURVE",
"458 395 OFFCURVE",
"480 344 CURVE",
"497 354 OFFCURVE",
"523 370 OFFCURVE",
"545 374 CURVE",
"542 309 OFFCURVE",
"504 153 OFFCURVE",
"435 65 CURVE",
"427 127 LINE SMOOTH",
"415 223 OFFCURVE",
"379 417 OFFCURVE",
"364 457 CURVE",
"352 468 OFFCURVE",
"223 484 OFFCURVE",
"210 477 CURVE",
"204 426 LINE",
"246 415 OFFCURVE",
"256 391 OFFCURVE",
"273 324 CURVE SMOOTH",
"287 267 OFFCURVE",
"303 173 OFFCURVE",
"316 33 CURVE",
"328 14 OFFCURVE",
"387 -13 OFFCURVE",
"484 -5 CURVE",
"580 99 OFFCURVE",
"642 317 OFFCURVE",
"642 444 CURVE",
"605 464 OFFCURVE",
"562 477 OFFCURVE",
"520 484 CURVE"
);
}
);
};
guideLines = (
{
angle = -12;
position = "{705, 437}";
},
{
angle = -96;
position = "{355, 480}";
}
);
layerId = "71FD7A9F-05F5-4D76-8D4F-547475A05E4C";
name = "Regular Italic";
paths = (
{
closed = 1;
nodes = (
"306 356 LINE",
"302 268 OFFCURVE",
"264 142 OFFCURVE",
"214 85 CURVE",
"188 212 OFFCURVE",
"183 311 OFFCURVE",
"161 457 CURVE",
"150 468 OFFCURVE",
"21 487 OFFCURVE",
"8 480 CURVE",
"0 435 LINE",
"41 424 OFFCURVE",
"46 400 OFFCURVE",
"58 324 CURVE SMOOTH",
"67 267 OFFCURVE",
"80 150 OFFCURVE",
"99 31 CURVE",
"110 12 OFFCURVE",
"168 -3 OFFCURVE",
"247 -3 CURVE",
"343 119 OFFCURVE",
"355 286 OFFCURVE",
"317 360 CURVE"
);
},
{
closed = 1;
nodes = (
"497 484 OFFCURVE",
"456 480 OFFCURVE",
"434 457 CURVE",
"448 414 OFFCURVE",
"454 395 OFFCURVE",
"475 344 CURVE",
"493 355 OFFCURVE",
"523 372 OFFCURVE",
"546 378 CURVE",
"537 299 OFFCURVE",
"503 183 OFFCURVE",
"442 85 CURVE",
"416 222 OFFCURVE",
"385 431 OFFCURVE",
"378 460 CURVE",
"368 471 OFFCURVE",
"253 487 OFFCURVE",
"241 480 CURVE",
"233 435 LINE",
"273 424 OFFCURVE",
"278 403 OFFCURVE",
"301 240 CURVE",
"317 194 OFFCURVE",
"305 226 OFFCURVE",
"332 31 CURVE",
"342 12 OFFCURVE",
"369 -5 OFFCURVE",
"480 -5 CURVE",
"570 98 OFFCURVE",
"649 331 OFFCURVE",
"641 447 CURVE",
"618 462 OFFCURVE",
"543 484 OFFCURVE",
"517 484 CURVE SMOOTH"
);
}
);
width = 648;
}
);
leftKerningGroup = v;
leftMetricsKey = v;
rightKerningGroup = o;
rightMetricsKey = o;
unicode = 0077;
},
{
glyphname = x;
lastChange = "2015-11-15 16:56:04 +0000";
layers = (
{
background = {
paths = (
{
closed = 1;
nodes = (
"477 70 LINE",
"463 65 OFFCURVE",
"443 59 OFFCURVE",
"426 59 CURVE",
"402 113 OFFCURVE",
"458 352 OFFCURVE",
"479 428 CURVE SMOOTH",
"486 455 OFFCURVE",
"428 482 OFFCURVE",
"389 482 CURVE SMOOTH",
"272 482 OFFCURVE",
"199 243 OFFCURVE",
"203 261 CURVE SMOOTH",
"204 270 OFFCURVE",
"229 433 OFFCURVE",
"219 444 CURVE SMOOTH",
"208 455 OFFCURVE",
"77 487 OFFCURVE",
"63 480 CURVE",
"53 435 LINE",
"69 427 OFFCURVE",
"99 412 OFFCURVE",
"95 345 CURVE SMOOTH",
"86 210 OFFCURVE",
"60 45 OFFCURVE",
"58 34 CURVE SMOOTH",
"58 22 OFFCURVE",
"139 -3 OFFCURVE",
"182 -3 CURVE SMOOTH",
"197 -3 OFFCURVE",
"200 14 OFFCURVE",
"193 103 CURVE",
"221 255 OFFCURVE",
"320 357 OFFCURVE",
"347 371 CURVE",
"330 317 OFFCURVE",
"273 79 OFFCURVE",
"298 42 CURVE SMOOTH",
"304 33 OFFCURVE",
"353 -2 OFFCURVE",
"418 -2 CURVE",
"450 7 OFFCURVE",
"467 16 OFFCURVE",
"481 25 CURVE"
);
}
);
};
layerId = "71FD7A9F-05F5-4D76-8D4F-547475A05E4C";
name = "Regular Italic";
paths = (
{
closed = 1;
nodes = (
"432 71 LINE",
"419 66 OFFCURVE",
"405 60 OFFCURVE",
"389 60 CURVE",
"372 60 OFFCURVE",
"327 134 OFFCURVE",
"273 246 CURVE",
"271 263 OFFCURVE",
"256 256 OFFCURVE",
"251 272 CURVE",
"237 331 OFFCURVE",
"220 406 OFFCURVE",
"210 446 CURVE",
"200 457 OFFCURVE",
"47 487 OFFCURVE",
"34 480 CURVE",
"25 429 LINE",
"94 409 OFFCURVE",
"140 299 OFFCURVE",
"173 201 CURVE",
"178 190 OFFCURVE",
"194 194 OFFCURVE",
"199 183 CURVE",
"212 131 OFFCURVE",
"225 74 OFFCURVE",
"248 32 CURVE SMOOTH",
"252 23 OFFCURVE",
"304 -2 OFFCURVE",
"371 -2 CURVE",
"400 7 OFFCURVE",
"424 16 OFFCURVE",
"437 25 CURVE"
);
},
{
closed = 1;
nodes = (
"195 256 LINE",
"177 201 OFFCURVE",
"125 141 OFFCURVE",
"105 123 CURVE",
"81 133 OFFCURVE",
"54 152 OFFCURVE",
"33 167 CURVE",
"13 131 OFFCURVE",
"-18 51 OFFCURVE",
"-19 39 CURVE",
"-10 14 OFFCURVE",
"17 -3 OFFCURVE",
"46 -3 CURVE SMOOTH",
"63 -3 OFFCURVE",
"106 20 OFFCURVE",
"112 27 CURVE",
"157 67 OFFCURVE",
"235 200 OFFCURVE",
"235 249 CURVE"
);
},
{
closed = 1;
nodes = (
"257 208 LINE",
"260 235 OFFCURVE",
"314 326 OFFCURVE",
"341 354 CURVE",
"364 343 OFFCURVE",
"389 325 OFFCURVE",
"409 307 CURVE",
"429 335 OFFCURVE",
"462 426 OFFCURVE",
"463 438 CURVE",
"455 463 OFFCURVE",
"428 480 OFFCURVE",
"398 480 CURVE SMOOTH",
"382 480 OFFCURVE",
"338 456 OFFCURVE",
"333 450 CURVE",
"288 394 OFFCURVE",
"243 305 OFFCURVE",
"212 237 CURVE"
);
}
);
width = 473;
}
);
rightMetricsKey = r;
unicode = 0078;
},
{
glyphname = y;
lastChange = "2015-11-15 16:49:43 +0000";
layers = (
{
background = {
paths = (
{
closed = 1;
nodes = (
"275 411 OFFCURVE",
"191 424 OFFCURVE",
"160 421 CURVE",
"148 370 LINE",
"176 363 OFFCURVE",
"190 355 OFFCURVE",
"192 280 CURVE SMOOTH",
"192 244 OFFCURVE",
"185 170 OFFCURVE",
"179 123 CURVE SMOOTH",
"155 -66 OFFCURVE",
"128 -157 OFFCURVE",
"96 -185 CURVE",
"81 -185 OFFCURVE",
"62 -180 OFFCURVE",
"35 -165 CURVE",
"18 -209 LINE",
"42 -229 OFFCURVE",
"74 -245 OFFCURVE",
"108 -251 CURVE",
"215 -225 OFFCURVE",
"256 -170 OFFCURVE",
"280 56 CURVE",
"293 190 OFFCURVE",
"317 370 OFFCURVE",
"315 394 CURVE"
);
},
{
closed = 1;
nodes = (
"310 483 OFFCURVE",
"269 475 OFFCURVE",
"257 457 CURVE",
"270 418 OFFCURVE",
"283 389 OFFCURVE",
"305 338 CURVE",
"370 368 LINE",
"367 303 OFFCURVE",
"324 153 OFFCURVE",
"255 65 CURVE",
"247 127 LINE SMOOTH",
"235 223 OFFCURVE",
"202 417 OFFCURVE",
"187 457 CURVE",
"175 468 OFFCURVE",
"46 484 OFFCURVE",
"33 477 CURVE",
"27 426 LINE",
"69 415 OFFCURVE",
"79 391 OFFCURVE",
"96 324 CURVE SMOOTH",
"110 267 OFFCURVE",
"126 173 OFFCURVE",
"139 33 CURVE",
"151 14 OFFCURVE",
"210 -13 OFFCURVE",
"307 -5 CURVE",
"403 117 OFFCURVE",
"465 317 OFFCURVE",
"465 444 CURVE",
"422 477 OFFCURVE",
"381 483 OFFCURVE",
"331 483 CURVE SMOOTH"
);
},
{
closed = 1;
nodes = (
"310 483 OFFCURVE",
"269 475 OFFCURVE",
"257 457 CURVE",
"270 418 OFFCURVE",
"283 389 OFFCURVE",
"305 338 CURVE",
"370 368 LINE",
"367 303 OFFCURVE",
"324 153 OFFCURVE",
"255 65 CURVE",
"247 127 LINE SMOOTH",
"235 223 OFFCURVE",
"202 417 OFFCURVE",
"187 457 CURVE",
"175 468 OFFCURVE",
"46 484 OFFCURVE",
"33 477 CURVE",
"27 426 LINE",
"69 415 OFFCURVE",
"79 391 OFFCURVE",
"96 324 CURVE SMOOTH",
"110 267 OFFCURVE",
"126 173 OFFCURVE",
"139 33 CURVE",
"151 14 OFFCURVE",
"210 -13 OFFCURVE",
"307 -5 CURVE",
"403 117 OFFCURVE",
"465 317 OFFCURVE",
"465 444 CURVE",
"422 477 OFFCURVE",
"381 483 OFFCURVE",
"331 483 CURVE SMOOTH"
);
}
);
};
layerId = "71FD7A9F-05F5-4D76-8D4F-547475A05E4C";
name = "Regular Italic";
paths = (
{
closed = 1;
nodes = (
"265 127 LINE SMOOTH",
"249 222 OFFCURVE",
"211 417 OFFCURVE",
"196 457 CURVE",
"184 468 OFFCURVE",
"39 484 OFFCURVE",
"26 477 CURVE",
"20 426 LINE",
"62 415 OFFCURVE",
"85 391 OFFCURVE",
"103 324 CURVE SMOOTH",
"119 267 OFFCURVE",
"135 173 OFFCURVE",
"148 33 CURVE",
"155 22 OFFCURVE",
"218 10 OFFCURVE",
"274 -1 CURVE",
"282 24 LINE"
);
},
{
closed = 1;
nodes = (
"318 353 OFFCURVE",
"346 368 OFFCURVE",
"368 373 CURVE",
"374 266 OFFCURVE",
"291 42 OFFCURVE",
"255 4 CURVE",
"230 4 LINE",
"319 -13 LINE",
"433 151 OFFCURVE",
"467 382 OFFCURVE",
"465 447 CURVE",
"427 467 OFFCURVE",
"398 474 OFFCURVE",
"343 484 CURVE",
"317 484 OFFCURVE",
"275 478 OFFCURVE",
"257 458 CURVE",
"271 415 OFFCURVE",
"280 390 OFFCURVE",
"301 343 CURVE"
);
},
{
closed = 1;
nodes = (
"214 15 LINE",
"203 -69 OFFCURVE",
"143 -159 OFFCURVE",
"108 -185 CURVE",
"92 -185 OFFCURVE",
"63 -175 OFFCURVE",
"44 -166 CURVE",
"27 -209 LINE",
"54 -229 OFFCURVE",
"111 -245 OFFCURVE",
"168 -251 CURVE",
"275 -229 OFFCURVE",
"307 -154 OFFCURVE",
"320 -8 CURVE"
);
}
);
width = 471;
}
);
leftMetricsKey = v;
rightMetricsKey = v;
unicode = 0079;
},
{
glyphname = z;
lastChange = "2015-11-15 17:19:18 +0000";
layers = (
{
background = {
paths = (
{
closed = 1;
nodes = (
"432 71 LINE",
"419 66 OFFCURVE",
"405 60 OFFCURVE",
"389 60 CURVE",
"372 60 OFFCURVE",
"327 134 OFFCURVE",
"273 246 CURVE",
"271 263 OFFCURVE",
"256 256 OFFCURVE",
"251 272 CURVE",
"237 331 OFFCURVE",
"220 406 OFFCURVE",
"210 446 CURVE",
"200 457 OFFCURVE",
"47 487 OFFCURVE",
"34 480 CURVE",
"25 429 LINE",
"94 409 OFFCURVE",
"140 299 OFFCURVE",
"173 201 CURVE",
"178 190 OFFCURVE",
"194 194 OFFCURVE",
"199 183 CURVE",
"212 131 OFFCURVE",
"225 74 OFFCURVE",
"248 32 CURVE SMOOTH",
"252 23 OFFCURVE",
"304 -2 OFFCURVE",
"371 -2 CURVE",
"400 7 OFFCURVE",
"424 16 OFFCURVE",
"437 25 CURVE"
);
},
{
closed = 1;
nodes = (
"195 256 LINE",
"177 201 OFFCURVE",
"125 141 OFFCURVE",
"105 123 CURVE",
"81 133 OFFCURVE",
"54 152 OFFCURVE",
"33 167 CURVE",
"13 131 OFFCURVE",
"-18 51 OFFCURVE",
"-19 39 CURVE",
"-10 14 OFFCURVE",
"17 -3 OFFCURVE",
"46 -3 CURVE SMOOTH",
"63 -3 OFFCURVE",
"106 20 OFFCURVE",
"112 27 CURVE",
"157 67 OFFCURVE",
"235 200 OFFCURVE",
"235 249 CURVE"
);
},
{
closed = 1;
nodes = (
"257 208 LINE",
"260 235 OFFCURVE",
"314 326 OFFCURVE",
"341 354 CURVE",
"364 343 OFFCURVE",
"389 325 OFFCURVE",
"409 307 CURVE",
"429 335 OFFCURVE",
"462 426 OFFCURVE",
"463 438 CURVE",
"455 463 OFFCURVE",
"428 480 OFFCURVE",
"398 480 CURVE SMOOTH",
"382 480 OFFCURVE",
"338 456 OFFCURVE",
"333 450 CURVE",
"288 394 OFFCURVE",
"243 305 OFFCURVE",
"212 237 CURVE"
);
}
);
};
layerId = "71FD7A9F-05F5-4D76-8D4F-547475A05E4C";
name = "Regular Italic";
paths = (
{
closed = 1;
nodes = (
"63 -3 OFFCURVE",
"106 21 OFFCURVE",
"112 27 CURVE",
"129 42 OFFCURVE",
"151 59 OFFCURVE",
"167 86 CURVE SMOOTH",
"176 101 OFFCURVE",
"160 72 OFFCURVE",
"193 120 CURVE",
"264 213 OFFCURVE",
"364 356 OFFCURVE",
"419 458 CURVE",
"405 470 OFFCURVE",
"391 475 OFFCURVE",
"376 478 CURVE SMOOTH",
"354 482 OFFCURVE",
"349 467 OFFCURVE",
"338 446 CURVE",
"282 340 OFFCURVE",
"174 193 OFFCURVE",
"146 158 CURVE SMOOTH",
"132 140 OFFCURVE",
"115 125 OFFCURVE",
"108 123 CURVE",
"84 133 OFFCURVE",
"54 152 OFFCURVE",
"33 167 CURVE",
"13 131 OFFCURVE",
"-18 51 OFFCURVE",
"-19 39 CURVE",
"-10 14 OFFCURVE",
"17 -3 OFFCURVE",
"46 -3 CURVE SMOOTH"
);
},
{
closed = 1;
nodes = (
"382 62 OFFCURVE",
"409 112 OFFCURVE",
"418 146 CURVE",
"376 163 LINE",
"369 143 OFFCURVE",
"360 128 OFFCURVE",
"349 116 CURVE",
"304 110 OFFCURVE",
"238 103 OFFCURVE",
"171 150 CURVE",
"112 77 LINE",
"176 13 OFFCURVE",
"255 -34 OFFCURVE",
"346 17 CURVE"
);
},
{
closed = 1;
nodes = (
"77 335 OFFCURVE",
"252 350 OFFCURVE",
"297 347 CURVE",
"339 380 LINE",
"329 401 OFFCURVE",
"379 442 OFFCURVE",
"356 442 CURVE",
"274 433 OFFCURVE",
"136 470 OFFCURVE",
"59 476 CURVE",
"51 466 OFFCURVE",
"22 348 OFFCURVE",
"30 320 CURVE"
);
}
);
width = 447;
}
);
unicode = 007A;
},
{
glyphname = n.001;
lastChange = "2015-11-09 00:10:34 +0000";
layers = (
{
background = {
paths = (
{
closed = 1;
nodes = (
"481 454 OFFCURVE",
"422 482 OFFCURVE",
"383 482 CURVE",
"339 370 LINE",
"309 265 OFFCURVE",
"269 75 OFFCURVE",
"288 44 CURVE SMOOTH",
"298 28 OFFCURVE",
"357 -2 OFFCURVE",
"411 -2 CURVE",
"443 7 OFFCURVE",
"462 20 OFFCURVE",
"474 28 CURVE",
"470 79 LINE",
"456 74 OFFCURVE",
"434 67 OFFCURVE",
"419 67 CURVE",
"399 132 OFFCURVE",
"455 354 OFFCURVE",
"475 427 CURVE"
);
}
);
};
guideLines = (
{
angle = -12;
position = "{360, 29}";
},
{
position = "{885, 369}";
}
);
layerId = "71FD7A9F-05F5-4D76-8D4F-547475A05E4C";
name = "Regular Italic";
paths = (
{
closed = 1;
nodes = (
"470 74 LINE",
"456 69 OFFCURVE",
"436 62 OFFCURVE",
"419 62 CURVE",
"395 116 OFFCURVE",
"456 363 OFFCURVE",
"476 439 CURVE",
"382 482 LINE",
"265 482 OFFCURVE",
"192 243 OFFCURVE",
"196 261 CURVE SMOOTH",
"197 270 OFFCURVE",
"222 433 OFFCURVE",
"212 444 CURVE SMOOTH",
"201 455 OFFCURVE",
"70 487 OFFCURVE",
"56 480 CURVE",
"56 480 OFFCURVE",
"36 437 OFFCURVE",
"53 429 CURVE SMOOTH",
"69 421 OFFCURVE",
"92 412 OFFCURVE",
"88 345 CURVE SMOOTH",
"79 210 OFFCURVE",
"53 45 OFFCURVE",
"51 34 CURVE SMOOTH",
"51 22 OFFCURVE",
"132 -3 OFFCURVE",
"175 -3 CURVE SMOOTH",
"190 -3 OFFCURVE",
"193 14 OFFCURVE",
"186 103 CURVE",
"214 255 OFFCURVE",
"313 357 OFFCURVE",
"340 371 CURVE",
"323 317 OFFCURVE",
"266 79 OFFCURVE",
"291 42 CURVE SMOOTH",
"297 33 OFFCURVE",
"346 -2 OFFCURVE",
"411 -2 CURVE",
"443 7 OFFCURVE",
"460 19 OFFCURVE",
"474 28 CURVE"
);
}
);
width = 506;
}
);
leftKerningGroup = i;
leftMetricsKey = i;
rightKerningGroup = i;
rightMetricsKey = i;
},
{
glyphname = q.001;
lastChange = "2015-11-15 21:08:49 +0000";
layers = (
{
background = {
paths = (
{
closed = 1;
nodes = (
"295 496 OFFCURVE",
"275 486 OFFCURVE",
"257 473 CURVE",
"261 427 LINE",
"276 432 OFFCURVE",
"301 439 OFFCURVE",
"312 439 CURVE",
"335 413 OFFCURVE",
"307 236 OFFCURVE",
"283 69 CURVE SMOOTH",
"270 -20 OFFCURVE",
"242 -183 OFFCURVE",
"257 -206 CURVE SMOOTH",
"264 -216 OFFCURVE",
"394 -247 OFFCURVE",
"409 -239 CURVE",
"419 -197 LINE",
"401 -185 OFFCURVE",
"395 -180 OFFCURVE",
"380 -168 CURVE",
"379 -107 OFFCURVE",
"393 59 OFFCURVE",
"408 175 CURVE SMOOTH",
"420 266 OFFCURVE",
"457 443 OFFCURVE",
"434 461 CURVE SMOOTH",
"426 467 OFFCURVE",
"375 503 OFFCURVE",
"320 503 CURVE"
);
}
);
};
layerId = "71FD7A9F-05F5-4D76-8D4F-547475A05E4C";
name = "Regular Italic";
paths = (
{
closed = 1;
nodes = (
"370 -219 OFFCURVE",
"381 -44 OFFCURVE",
"396 72 CURVE SMOOTH",
"408 164 OFFCURVE",
"416 293 OFFCURVE",
"466 459 CURVE",
"466 465 OFFCURVE",
"437 474 OFFCURVE",
"426 476 CURVE SMOOTH",
"403 484 OFFCURVE",
"399 467 OFFCURVE",
"385 432 CURVE",
"329 470 OFFCURVE",
"271 488 OFFCURVE",
"204 485 CURVE",
"24 436 OFFCURVE",
"-29 170 OFFCURVE",
"83 37 CURVE SMOOTH",
"110 5 OFFCURVE",
"143 -2 OFFCURVE",
"179 -1 CURVE",
"217 30 OFFCURVE",
"258 81 OFFCURVE",
"293 135 CURVE",
"271 -18 OFFCURVE",
"237 -204 OFFCURVE",
"250 -217 CURVE SMOOTH",
"263 -230 OFFCURVE",
"357 -254 OFFCURVE",
"369 -248 CURVE"
);
},
{
closed = 1;
nodes = (
"196 115 OFFCURVE",
"179 132 OFFCURVE",
"171 153 CURVE SMOOTH",
"142 232 OFFCURVE",
"145 370 OFFCURVE",
"221 417 CURVE",
"262 413 OFFCURVE",
"306 379 OFFCURVE",
"329 345 CURVE",
"314 259 LINE",
"283 199 OFFCURVE",
"216 127 OFFCURVE",
"204 115 CURVE"
);
}
);
width = 453;
}
);
leftMetricsKey = o;
rightMetricsKey = i;
},
{
glyphname = v.001;
layers = (
{
background = {
paths = (
{
closed = 1;
nodes = (
"614 458 OFFCURVE",
"494 479 OFFCURVE",
"484 477 CURVE",
"532 340 OFFCURVE",
"529 108 OFFCURVE",
"452 69 CURVE",
"406 102 OFFCURVE",
"389 194 OFFCURVE",
"395 265 CURVE",
"408 315 OFFCURVE",
"431 446 OFFCURVE",
"425 453 CURVE",
"418 462 OFFCURVE",
"334 476 OFFCURVE",
"302 480 CURVE",
"285 410 OFFCURVE",
"281 294 OFFCURVE",
"295 237 CURVE",
"282 141 OFFCURVE",
"256 87 OFFCURVE",
"231 69 CURVE",
"133 136 OFFCURVE",
"184 382 OFFCURVE",
"221 439 CURVE",
"190 458 OFFCURVE",
"91 482 OFFCURVE",
"64 480 CURVE",
"64 480 OFFCURVE",
"33 423 OFFCURVE",
"36 383 CURVE SMOOTH",
"36 379 OFFCURVE",
"41 377 OFFCURVE",
"45 379 CURVE SMOOTH",
"77 392 OFFCURVE",
"116 395 OFFCURVE",
"132 396 CURVE",
"66 335 OFFCURVE",
"-32 73 OFFCURVE",
"157 5 CURVE SMOOTH",
"180 -3 OFFCURVE",
"223 -6 OFFCURVE",
"229 -5 CURVE",
"264 19 OFFCURVE",
"303 55 OFFCURVE",
"329 99 CURVE",
"347 57 OFFCURVE",
"370 26 OFFCURVE",
"400 10 CURVE SMOOTH",
"419 0 OFFCURVE",
"442 -5 OFFCURVE",
"462 -4 CURVE",
"627 48 OFFCURVE",
"672 315 OFFCURVE",
"618 448 CURVE SMOOTH"
);
}
);
};
layerId = "71FD7A9F-05F5-4D76-8D4F-547475A05E4C";
name = "Regular Italic";
paths = (
{
closed = 1;
nodes = (
"137 137 OFFCURVE",
"183 382 OFFCURVE",
"221 439 CURVE",
"184 461 OFFCURVE",
"91 482 OFFCURVE",
"64 480 CURVE",
"64 480 OFFCURVE",
"34 429 OFFCURVE",
"36 384 CURVE SMOOTH",
"36 379 OFFCURVE",
"41 377 OFFCURVE",
"46 379 CURVE SMOOTH",
"78 392 OFFCURVE",
"117 395 OFFCURVE",
"133 396 CURVE",
"78 354 OFFCURVE",
"-40 80 OFFCURVE",
"154 6 CURVE SMOOTH",
"175 -2 OFFCURVE",
"205 -5 OFFCURVE",
"239 -5 CURVE",
"364 24 OFFCURVE",
"477 222 OFFCURVE",
"407 448 CURVE SMOOTH",
"404 458 OFFCURVE",
"303 477 OFFCURVE",
"279 475 CURVE",
"328 360 OFFCURVE",
"325 127 OFFCURVE",
"226 70 CURVE"
);
}
);
width = 453;
}
);
leftKerningGroup = v;
leftMetricsKey = "=i-10";
rightKerningGroup = o;
rightMetricsKey = o;
},
{
glyphname = w.001;
lastChange = "2015-11-08 17:05:08 +0000";
layers = (
{
background = {
paths = (
{
closed = 1;
nodes = (
"177 154 OFFCURVE",
"261 409 OFFCURVE",
"221 443 CURVE",
"211 454 OFFCURVE",
"89 485 OFFCURVE",
"62 480 CURVE",
"62 480 OFFCURVE",
"41 434 OFFCURVE",
"58 426 CURVE SMOOTH",
"74 418 OFFCURVE",
"110 409 OFFCURVE",
"104 345 CURVE SMOOTH",
"88 169 OFFCURVE",
"42 74 OFFCURVE",
"66 32 CURVE",
"90 15 OFFCURVE",
"137 -5 OFFCURVE",
"160 -5 CURVE SMOOTH",
"236 -5 OFFCURVE",
"322 172 OFFCURVE",
"349 287 CURVE SMOOTH",
"351 297 OFFCURVE",
"350 430 OFFCURVE",
"338 375 CURVE SMOOTH",
"304 218 OFFCURVE",
"190 89 OFFCURVE",
"187 104 CURVE"
);
},
{
closed = 1;
nodes = (
"461 461 OFFCURVE",
"395 479 OFFCURVE",
"347 479 CURVE",
"326 471 OFFCURVE",
"340 354 OFFCURVE",
"342 346 CURVE",
"332 307 OFFCURVE",
"306 93 OFFCURVE",
"306 45 CURVE SMOOTH",
"305 17 OFFCURVE",
"400 -6 OFFCURVE",
"439 0 CURVE SMOOTH",
"470 5 OFFCURVE",
"491 41 OFFCURVE",
"501 62 CURVE SMOOTH",
"509 76 OFFCURVE",
"519 92 OFFCURVE",
"509 97 CURVE SMOOTH",
"487 106 OFFCURVE",
"485 109 OFFCURVE",
"480 97 CURVE SMOOTH",
"460 59 OFFCURVE",
"446 59 OFFCURVE",
"441 65 CURVE SMOOTH",
"441 67 OFFCURVE",
"439 69 OFFCURVE",
"438 71 CURVE",
"415 111 OFFCURVE",
"458 379 OFFCURVE",
"475 444 CURVE"
);
},
{
closed = 1;
nodes = (
"584 479 OFFCURVE",
"550 484 OFFCURVE",
"515 481 CURVE",
"456 440 OFFCURVE",
"415 359 OFFCURVE",
"389 299 CURVE",
"392 317 OFFCURVE",
"410 439 OFFCURVE",
"402 447 CURVE SMOOTH",
"390 459 OFFCURVE",
"254 484 OFFCURVE",
"243 479 CURVE",
"243 479 OFFCURVE",
"224 435 OFFCURVE",
"239 425 CURVE SMOOTH",
"254 418 OFFCURVE",
"277 405 OFFCURVE",
"276 354 CURVE SMOOTH",
"275 296 OFFCURVE",
"262 145 OFFCURVE",
"249 55 CURVE SMOOTH",
"231 -67 OFFCURVE",
"205 -195 OFFCURVE",
"212 -203 CURVE SMOOTH",
"224 -213 OFFCURVE",
"357 -262 OFFCURVE",
"370 -252 CURVE",
"370 -252 OFFCURVE",
"394 -207 OFFCURVE",
"379 -201 CURVE SMOOTH",
"361 -192 OFFCURVE",
"346 -134 OFFCURVE",
"345 -86 CURVE SMOOTH",
"344 -45 OFFCURVE",
"346 -21 OFFCURVE",
"350 28 CURVE",
"395 4 OFFCURVE",
"443 -6 OFFCURVE",
"493 -4 CURVE",
"665 46 OFFCURVE",
"725 306 OFFCURVE",
"616 440 CURVE SMOOTH"
);
},
{
closed = 1;
nodes = (
"474 63 LINE SMOOTH",
"474 63 OFFCURVE",
"416 68 OFFCURVE",
"367 138 CURVE",
"372 168 LINE",
"380 226 OFFCURVE",
"475 366 OFFCURVE",
"493 372 CURVE",
"504 367 OFFCURVE",
"514 354 OFFCURVE",
"523 332 CURVE SMOOTH",
"556 250 OFFCURVE",
"552 113 OFFCURVE",
"474 63 CURVE"
);
}
);
};
guideLines = (
{
angle = -12;
position = "{710, 437}";
}
);
layerId = "71FD7A9F-05F5-4D76-8D4F-547475A05E4C";
name = "Regular Italic";
paths = (
{
closed = 1;
nodes = (
"635 471 OFFCURVE",
"524 417 OFFCURVE",
"514 417 CURVE",
"556 337 OFFCURVE",
"566 129 OFFCURVE",
"474 63 CURVE",
"437 91 OFFCURVE",
"420 125 OFFCURVE",
"431 246 CURVE",
"436 302 OFFCURVE",
"467 445 OFFCURVE",
"461 452 CURVE",
"454 461 OFFCURVE",
"379 475 OFFCURVE",
"347 479 CURVE",
"326 481 OFFCURVE",
"311 373 OFFCURVE",
"322 282 CURVE",
"303 193 OFFCURVE",
"227 93 OFFCURVE",
"198 93 CURVE",
"161 123 OFFCURVE",
"250 395 OFFCURVE",
"228 440 CURVE",
"197 465 OFFCURVE",
"89 482 OFFCURVE",
"62 480 CURVE",
"62 480 OFFCURVE",
"44 450 OFFCURVE",
"58 426 CURVE",
"91 417 OFFCURVE",
"106 391 OFFCURVE",
"106 365 CURVE SMOOTH",
"106 261 OFFCURVE",
"7 47 OFFCURVE",
"117 11 CURVE SMOOTH",
"139 4 OFFCURVE",
"161 -1 OFFCURVE",
"195 -1 CURVE",
"248 23 OFFCURVE",
"289 92 OFFCURVE",
"315 136 CURVE",
"316 51 OFFCURVE",
"360 30 OFFCURVE",
"388 15 CURVE SMOOTH",
"405 6 OFFCURVE",
"465 -4 OFFCURVE",
"485 -4 CURVE",
"688 47 OFFCURVE",
"706 341 OFFCURVE",
"641 461 CURVE SMOOTH"
);
}
);
width = 701;
}
);
},
{
glyphname = y.001;
layers = (
{
background = {
paths = (
{
closed = 1;
nodes = (
"461 461 OFFCURVE",
"395 479 OFFCURVE",
"347 479 CURVE",
"326 471 OFFCURVE",
"340 354 OFFCURVE",
"342 346 CURVE",
"332 307 OFFCURVE",
"306 93 OFFCURVE",
"306 45 CURVE SMOOTH",
"305 17 OFFCURVE",
"400 -6 OFFCURVE",
"439 0 CURVE SMOOTH",
"470 5 OFFCURVE",
"491 41 OFFCURVE",
"501 62 CURVE SMOOTH",
"509 76 OFFCURVE",
"519 92 OFFCURVE",
"509 97 CURVE SMOOTH",
"487 106 OFFCURVE",
"485 109 OFFCURVE",
"480 97 CURVE SMOOTH",
"460 59 OFFCURVE",
"446 59 OFFCURVE",
"441 65 CURVE SMOOTH",
"441 67 OFFCURVE",
"439 69 OFFCURVE",
"438 71 CURVE",
"415 111 OFFCURVE",
"458 379 OFFCURVE",
"475 444 CURVE"
);
},
{
closed = 1;
nodes = (
"99 45 OFFCURVE",
"157 -9 OFFCURVE",
"266 7 CURVE",
"313 -16 OFFCURVE",
"326 -8 OFFCURVE",
"266 -40 CURVE",
"98 -72 OFFCURVE",
"-20 37 OFFCURVE",
"1 151 CURVE SMOOTH",
"13 215 OFFCURVE",
"74 269 OFFCURVE",
"198 257 CURVE",
"377 207 OFFCURVE",
"439 -48 OFFCURVE",
"330 -174 CURVE SMOOTH",
"275 -238 OFFCURVE",
"171 -241 OFFCURVE",
"110 -216 CURVE SMOOTH",
"62 -196 OFFCURVE",
"30 -158 OFFCURVE",
"24 -137 CURVE",
"24 -137 OFFCURVE",
"41 -128 OFFCURVE",
"59 -121 CURVE",
"69 -139 OFFCURVE",
"107 -162 OFFCURVE",
"152 -156 CURVE SMOOTH",
"180 -152 OFFCURVE",
"219 -125 OFFCURVE",
"236 -85 CURVE SMOOTH",
"268 -11 OFFCURVE",
"260 140 OFFCURVE",
"181 192 CURVE",
"119 192 OFFCURVE",
"113 131 OFFCURVE",
"109 108 CURVE SMOOTH"
);
}
);
};
layerId = "71FD7A9F-05F5-4D76-8D4F-547475A05E4C";
name = "Regular Italic";
paths = (
{
closed = 1;
nodes = (
"39 -224 OFFCURVE",
"232 -314 OFFCURVE",
"344 -194 CURVE SMOOTH",
"466 -64 OFFCURVE",
"354 114 OFFCURVE",
"467 450 CURVE",
"463 457 OFFCURVE",
"353 492 OFFCURVE",
"345 474 CURVE SMOOTH",
"334 449 OFFCURVE",
"338 411 OFFCURVE",
"343 386 CURVE",
"310 175 OFFCURVE",
"327 -20 OFFCURVE",
"244 -112 CURVE SMOOTH",
"182 -180 OFFCURVE",
"108 -177 OFFCURVE",
"48 -114 CURVE",
"15 -136 LINE"
);
},
{
closed = 1;
nodes = (
"236 -5 OFFCURVE",
"327 172 OFFCURVE",
"352 287 CURVE SMOOTH",
"354 297 OFFCURVE",
"350 430 OFFCURVE",
"341 375 CURVE SMOOTH",
"316 215 OFFCURVE",
"190 89 OFFCURVE",
"187 104 CURVE",
"177 154 OFFCURVE",
"261 409 OFFCURVE",
"221 443 CURVE",
"211 454 OFFCURVE",
"89 485 OFFCURVE",
"62 480 CURVE",
"62 480 OFFCURVE",
"41 434 OFFCURVE",
"58 426 CURVE SMOOTH",
"74 418 OFFCURVE",
"110 409 OFFCURVE",
"104 345 CURVE SMOOTH",
"88 169 OFFCURVE",
"42 74 OFFCURVE",
"66 32 CURVE",
"90 15 OFFCURVE",
"137 -5 OFFCURVE",
"160 -5 CURVE SMOOTH"
);
}
);
width = 453;
}
);
leftMetricsKey = u;
rightMetricsKey = j;
},
{
glyphname = n.002;
lastChange = "2015-11-13 18:39:40 +0000";
layers = (
{
background = {
paths = (
{
closed = 1;
nodes = (
"481 454 OFFCURVE",
"422 482 OFFCURVE",
"383 482 CURVE",
"339 370 LINE",
"309 265 OFFCURVE",
"269 75 OFFCURVE",
"288 44 CURVE SMOOTH",
"298 28 OFFCURVE",
"357 -2 OFFCURVE",
"411 -2 CURVE",
"443 7 OFFCURVE",
"462 20 OFFCURVE",
"474 28 CURVE",
"470 79 LINE",
"456 74 OFFCURVE",
"434 67 OFFCURVE",
"419 67 CURVE",
"399 132 OFFCURVE",
"455 354 OFFCURVE",
"475 427 CURVE"
);
}
);
};
guideLines = (
{
angle = -12;
position = "{360, 29}";
},
{
position = "{885, 369}";
}
);
layerId = "71FD7A9F-05F5-4D76-8D4F-547475A05E4C";
name = "Regular Italic";
paths = (
{
closed = 1;
nodes = (
"470 70 LINE",
"456 65 OFFCURVE",
"436 59 OFFCURVE",
"419 59 CURVE",
"395 113 OFFCURVE",
"451 352 OFFCURVE",
"472 428 CURVE SMOOTH",
"479 455 OFFCURVE",
"421 482 OFFCURVE",
"382 482 CURVE SMOOTH",
"265 482 OFFCURVE",
"192 243 OFFCURVE",
"196 261 CURVE SMOOTH",
"197 270 OFFCURVE",
"222 433 OFFCURVE",
"212 444 CURVE SMOOTH",
"201 455 OFFCURVE",
"70 487 OFFCURVE",
"56 480 CURVE",
"46 435 LINE",
"62 427 OFFCURVE",
"92 412 OFFCURVE",
"88 345 CURVE SMOOTH",
"79 210 OFFCURVE",
"53 45 OFFCURVE",
"51 34 CURVE SMOOTH",
"51 22 OFFCURVE",
"132 -3 OFFCURVE",
"175 -3 CURVE SMOOTH",
"190 -3 OFFCURVE",
"193 14 OFFCURVE",
"186 103 CURVE",
"214 255 OFFCURVE",
"313 357 OFFCURVE",
"340 371 CURVE",
"323 317 OFFCURVE",
"266 79 OFFCURVE",
"291 42 CURVE SMOOTH",
"297 33 OFFCURVE",
"346 -2 OFFCURVE",
"411 -2 CURVE",
"443 7 OFFCURVE",
"460 16 OFFCURVE",
"474 25 CURVE"
);
}
);
width = 506;
}
);
leftKerningGroup = i;
leftMetricsKey = i;
rightKerningGroup = i;
rightMetricsKey = i;
},
{
glyphname = u.002;
layers = (
{
background = {
paths = (
{
closed = 1;
nodes = (
"50 372 OFFCURVE",
"52 369 OFFCURVE",
"57 381 CURVE SMOOTH",
"76 419 OFFCURVE",
"90 419 OFFCURVE",
"95 413 CURVE SMOOTH",
"95 411 OFFCURVE",
"97 409 OFFCURVE",
"98 407 CURVE",
"126 353 OFFCURVE",
"69 127 OFFCURVE",
"48 51 CURVE SMOOTH",
"42 24 OFFCURVE",
"101 -4 OFFCURVE",
"140 -4 CURVE SMOOTH",
"257 -4 OFFCURVE",
"332 250 OFFCURVE",
"328 232 CURVE SMOOTH",
"327 223 OFFCURVE",
"300 45 OFFCURVE",
"310 34 CURVE SMOOTH",
"321 23 OFFCURVE",
"452 -9 OFFCURVE",
"466 -2 CURVE",
"466 -2 OFFCURVE",
"486 41 OFFCURVE",
"469 49 CURVE SMOOTH",
"453 57 OFFCURVE",
"430 66 OFFCURVE",
"434 133 CURVE SMOOTH",
"443 268 OFFCURVE",
"469 433 OFFCURVE",
"471 444 CURVE SMOOTH",
"471 456 OFFCURVE",
"390 481 OFFCURVE",
"347 481 CURVE SMOOTH",
"332 481 OFFCURVE",
"329 464 OFFCURVE",
"336 375 CURVE",
"307 218 OFFCURVE",
"211 121 OFFCURVE",
"184 107 CURVE",
"197 161 OFFCURVE",
"253 383 OFFCURVE",
"235 425 CURVE SMOOTH",
"224 451 OFFCURVE",
"159 489 OFFCURVE",
"100 480 CURVE SMOOTH",
"69 475 OFFCURVE",
"45 437 OFFCURVE",
"35 416 CURVE SMOOTH",
"27 402 OFFCURVE",
"17 386 OFFCURVE",
"28 381 CURVE SMOOTH"
);
}
);
};
layerId = "71FD7A9F-05F5-4D76-8D4F-547475A05E4C";
name = "Regular Italic";
paths = (
{
closed = 1;
nodes = (
"177 154 OFFCURVE",
"261 409 OFFCURVE",
"221 443 CURVE",
"211 454 OFFCURVE",
"89 485 OFFCURVE",
"62 480 CURVE",
"62 480 OFFCURVE",
"41 434 OFFCURVE",
"58 426 CURVE SMOOTH",
"74 418 OFFCURVE",
"110 409 OFFCURVE",
"104 345 CURVE SMOOTH",
"88 169 OFFCURVE",
"42 74 OFFCURVE",
"66 32 CURVE",
"90 15 OFFCURVE",
"137 -5 OFFCURVE",
"160 -5 CURVE SMOOTH",
"236 -5 OFFCURVE",
"322 172 OFFCURVE",
"349 287 CURVE SMOOTH",
"351 297 OFFCURVE",
"350 430 OFFCURVE",
"338 375 CURVE SMOOTH",
"304 218 OFFCURVE",
"190 89 OFFCURVE",
"187 104 CURVE"
);
},
{
closed = 1;
nodes = (
"461 461 OFFCURVE",
"395 479 OFFCURVE",
"347 479 CURVE",
"326 471 OFFCURVE",
"340 354 OFFCURVE",
"342 346 CURVE",
"332 307 OFFCURVE",
"306 93 OFFCURVE",
"306 45 CURVE SMOOTH",
"305 17 OFFCURVE",
"400 -6 OFFCURVE",
"439 0 CURVE SMOOTH",
"470 5 OFFCURVE",
"491 41 OFFCURVE",
"501 62 CURVE SMOOTH",
"509 76 OFFCURVE",
"519 92 OFFCURVE",
"509 97 CURVE SMOOTH",
"487 106 OFFCURVE",
"485 109 OFFCURVE",
"480 97 CURVE SMOOTH",
"460 59 OFFCURVE",
"446 59 OFFCURVE",
"441 65 CURVE SMOOTH",
"441 67 OFFCURVE",
"439 69 OFFCURVE",
"438 71 CURVE",
"415 111 OFFCURVE",
"458 379 OFFCURVE",
"475 444 CURVE"
);
}
);
width = 539;
}
);
leftKerningGroup = i;
leftMetricsKey = n;
rightKerningGroup = i;
rightMetricsKey = n;
},
{
glyphname = w.002;
layers = (
{
background = {
paths = (
{
closed = 1;
nodes = (
"679 106 OFFCURVE",
"678 109 OFFCURVE",
"673 98 CURVE SMOOTH",
"654 60 OFFCURVE",
"641 59 OFFCURVE",
"637 66 CURVE SMOOTH",
"635 68 OFFCURVE",
"634 70 OFFCURVE",
"633 73 CURVE",
"606 125 OFFCURVE",
"663 351 OFFCURVE",
"681 428 CURVE SMOOTH",
"688 455 OFFCURVE",
"631 482 OFFCURVE",
"599 482 CURVE SMOOTH",
"501 482 OFFCURVE",
"432 306 OFFCURVE",
"417 265 CURVE",
"428 335 OFFCURVE",
"440 389 OFFCURVE",
"449 429 CURVE SMOOTH",
"455 458 OFFCURVE",
"404 482 OFFCURVE",
"366 482 CURVE SMOOTH",
"259 482 OFFCURVE",
"193 251 OFFCURVE",
"196 268 CURVE SMOOTH",
"197 277 OFFCURVE",
"219 432 OFFCURVE",
"209 443 CURVE SMOOTH",
"199 453 OFFCURVE",
"68 487 OFFCURVE",
"56 480 CURVE",
"56 480 OFFCURVE",
"37 438 OFFCURVE",
"53 430 CURVE SMOOTH",
"68 422 OFFCURVE",
"89 412 OFFCURVE",
"86 345 CURVE SMOOTH",
"78 211 OFFCURVE",
"52 45 OFFCURVE",
"51 33 CURVE SMOOTH",
"50 22 OFFCURVE",
"128 -3 OFFCURVE",
"174 -3 CURVE SMOOTH",
"189 -3 OFFCURVE",
"192 13 OFFCURVE",
"185 103 CURVE",
"213 259 OFFCURVE",
"296 368 OFFCURVE",
"322 378 CURVE",
"320 369 OFFCURVE",
"317 354 OFFCURVE",
"314 332 CURVE",
"288 199 OFFCURVE",
"273 45 OFFCURVE",
"272 33 CURVE SMOOTH",
"272 22 OFFCURVE",
"347 -3 OFFCURVE",
"392 -3 CURVE SMOOTH",
"408 -3 OFFCURVE",
"411 13 OFFCURVE",
"404 103 CURVE",
"432 259 OFFCURVE",
"530 368 OFFCURVE",
"554 378 CURVE",
"544 325 OFFCURVE",
"487 95 OFFCURVE",
"503 53 CURVE SMOOTH",
"515 27 OFFCURVE",
"574 -11 OFFCURVE",
"630 -2 CURVE SMOOTH",
"662 3 OFFCURVE",
"684 40 OFFCURVE",
"694 63 CURVE SMOOTH",
"700 77 OFFCURVE",
"711 93 OFFCURVE",
"701 97 CURVE SMOOTH"
);
}
);
};
guideLines = (
{
angle = -12;
position = "{718, 437}";
},
{
angle = -96;
position = "{369, 480}";
}
);
layerId = "71FD7A9F-05F5-4D76-8D4F-547475A05E4C";
name = "Regular Italic";
paths = (
{
closed = 1;
nodes = (
"616 458 OFFCURVE",
"496 479 OFFCURVE",
"486 477 CURVE",
"534 340 OFFCURVE",
"531 108 OFFCURVE",
"454 69 CURVE",
"408 102 OFFCURVE",
"391 194 OFFCURVE",
"397 265 CURVE",
"410 315 OFFCURVE",
"433 446 OFFCURVE",
"427 453 CURVE",
"420 462 OFFCURVE",
"336 476 OFFCURVE",
"304 480 CURVE",
"287 410 OFFCURVE",
"283 294 OFFCURVE",
"297 237 CURVE",
"284 141 OFFCURVE",
"258 87 OFFCURVE",
"233 69 CURVE",
"135 136 OFFCURVE",
"186 382 OFFCURVE",
"223 439 CURVE",
"192 458 OFFCURVE",
"93 482 OFFCURVE",
"66 480 CURVE",
"66 480 OFFCURVE",
"35 423 OFFCURVE",
"38 383 CURVE SMOOTH",
"38 379 OFFCURVE",
"43 377 OFFCURVE",
"47 379 CURVE SMOOTH",
"79 392 OFFCURVE",
"118 395 OFFCURVE",
"134 396 CURVE",
"68 335 OFFCURVE",
"-30 73 OFFCURVE",
"159 5 CURVE SMOOTH",
"182 -3 OFFCURVE",
"225 -6 OFFCURVE",
"231 -5 CURVE",
"266 19 OFFCURVE",
"305 55 OFFCURVE",
"331 99 CURVE",
"349 57 OFFCURVE",
"372 26 OFFCURVE",
"402 10 CURVE SMOOTH",
"421 0 OFFCURVE",
"444 -5 OFFCURVE",
"464 -4 CURVE",
"629 48 OFFCURVE",
"674 315 OFFCURVE",
"620 448 CURVE SMOOTH"
);
}
);
width = 662;
}
);
leftKerningGroup = v;
leftMetricsKey = v;
rightKerningGroup = o;
rightMetricsKey = o;
},
{
glyphname = y.002;
lastChange = "2015-11-08 18:50:07 +0000";
layers = (
{
background = {
paths = (
{
closed = 1;
nodes = (
"186 154 OFFCURVE",
"270 409 OFFCURVE",
"230 443 CURVE",
"220 454 OFFCURVE",
"98 485 OFFCURVE",
"71 480 CURVE",
"71 480 OFFCURVE",
"50 434 OFFCURVE",
"67 426 CURVE SMOOTH",
"83 418 OFFCURVE",
"119 409 OFFCURVE",
"113 345 CURVE SMOOTH",
"97 169 OFFCURVE",
"51 74 OFFCURVE",
"75 32 CURVE",
"99 15 OFFCURVE",
"146 -5 OFFCURVE",
"169 -5 CURVE SMOOTH",
"245 -5 OFFCURVE",
"331 172 OFFCURVE",
"358 287 CURVE SMOOTH",
"360 297 OFFCURVE",
"359 430 OFFCURVE",
"347 375 CURVE SMOOTH",
"313 218 OFFCURVE",
"199 89 OFFCURVE",
"196 104 CURVE"
);
}
);
};
layerId = "71FD7A9F-05F5-4D76-8D4F-547475A05E4C";
name = "Regular Italic";
paths = (
{
closed = 1;
nodes = (
"-23 -203 OFFCURVE",
"73 -274 OFFCURVE",
"161 -243 CURVE SMOOTH",
"357 -175 OFFCURVE",
"508 175 OFFCURVE",
"431 452 CURVE",
"428 459 OFFCURVE",
"342 480 OFFCURVE",
"310 476 CURVE",
"341 406 OFFCURVE",
"349 328 OFFCURVE",
"345 254 CURVE SMOOTH",
"339 147 OFFCURVE",
"307 53 OFFCURVE",
"260 -14 CURVE SMOOTH",
"183 -123 OFFCURVE",
"61 -184 OFFCURVE",
"7 -114 CURVE",
"-30 -136 LINE"
);
},
{
closed = 1;
nodes = (
"61 37 OFFCURVE",
"81 18 OFFCURVE",
"159 -1 CURVE",
"237 2 OFFCURVE",
"326 169 OFFCURVE",
"353 273 CURVE",
"353 409 LINE",
"349 359 OFFCURVE",
"257 155 OFFCURVE",
"198 103 CURVE",
"183 120 OFFCURVE",
"252 377 OFFCURVE",
"230 435 CURVE SMOOTH",
"222 456 OFFCURVE",
"91 485 OFFCURVE",
"64 480 CURVE",
"64 480 OFFCURVE",
"42 435 OFFCURVE",
"59 427 CURVE SMOOTH",
"127 393 OFFCURVE",
"130 417 OFFCURVE",
"67 70 CURVE SMOOTH"
);
}
);
width = 453;
}
);
leftMetricsKey = u;
rightMetricsKey = j;
},
{
glyphname = y.003;
lastChange = "2015-11-13 17:59:16 +0000";
layers = (
{
background = {
paths = (
{
closed = 1;
nodes = (
"144 137 OFFCURVE",
"190 382 OFFCURVE",
"228 439 CURVE",
"191 461 OFFCURVE",
"98 482 OFFCURVE",
"71 480 CURVE",
"71 480 OFFCURVE",
"41 429 OFFCURVE",
"43 384 CURVE SMOOTH",
"43 379 OFFCURVE",
"48 377 OFFCURVE",
"53 379 CURVE SMOOTH",
"85 392 OFFCURVE",
"124 395 OFFCURVE",
"140 396 CURVE",
"85 354 OFFCURVE",
"-33 80 OFFCURVE",
"161 6 CURVE SMOOTH",
"182 -2 OFFCURVE",
"212 -5 OFFCURVE",
"246 -5 CURVE",
"371 24 OFFCURVE",
"484 222 OFFCURVE",
"414 448 CURVE SMOOTH",
"411 458 OFFCURVE",
"310 477 OFFCURVE",
"286 475 CURVE",
"335 360 OFFCURVE",
"332 127 OFFCURVE",
"233 70 CURVE"
);
}
);
};
layerId = "71FD7A9F-05F5-4D76-8D4F-547475A05E4C";
name = "Regular Italic";
paths = (
{
closed = 1;
nodes = (
"8 -204 OFFCURVE",
"61 -272 OFFCURVE",
"150 -243 CURVE SMOOTH",
"373 -170 OFFCURVE",
"494 135 OFFCURVE",
"431 452 CURVE",
"428 459 OFFCURVE",
"328 480 OFFCURVE",
"296 476 CURVE",
"327 406 OFFCURVE",
"337 328 OFFCURVE",
"355 254 CURVE",
"355 127 OFFCURVE",
"279 0 OFFCURVE",
"228 -59 CURVE SMOOTH",
"191 -102 OFFCURVE",
"103 -148 OFFCURVE",
"52 -163 CURVE",
"8 -135 LINE",
"-10 -176 LINE"
);
},
{
closed = 1;
nodes = (
"44 94 OFFCURVE",
"99 1 OFFCURVE",
"177 0 CURVE SMOOTH",
"253 -1 OFFCURVE",
"366 214 OFFCURVE",
"361 330 CURVE",
"323 393 LINE",
"323 291 OFFCURVE",
"265 131 OFFCURVE",
"206 103 CURVE",
"149 217 OFFCURVE",
"207 409 OFFCURVE",
"228 439 CURVE",
"196 460 OFFCURVE",
"98 485 OFFCURVE",
"71 480 CURVE",
"71 480 OFFCURVE",
"30 391 OFFCURVE",
"47 379 CURVE SMOOTH",
"52 376 OFFCURVE",
"79 393 OFFCURVE",
"141 396 CURVE",
"105 358 OFFCURVE",
"67 291 OFFCURVE",
"55 190 CURVE SMOOTH"
);
}
);
width = 480;
}
);
leftMetricsKey = u;
rightMetricsKey = v;
},
{
glyphname = z.003;
layers = (
{
background = {
paths = (
{
closed = 1;
nodes = (
"432 71 LINE",
"419 66 OFFCURVE",
"405 60 OFFCURVE",
"389 60 CURVE",
"372 60 OFFCURVE",
"327 134 OFFCURVE",
"273 246 CURVE",
"271 263 OFFCURVE",
"256 256 OFFCURVE",
"251 272 CURVE",
"237 331 OFFCURVE",
"220 406 OFFCURVE",
"210 446 CURVE",
"200 457 OFFCURVE",
"47 487 OFFCURVE",
"34 480 CURVE",
"25 429 LINE",
"94 409 OFFCURVE",
"140 299 OFFCURVE",
"173 201 CURVE",
"178 190 OFFCURVE",
"194 194 OFFCURVE",
"199 183 CURVE",
"212 131 OFFCURVE",
"225 74 OFFCURVE",
"248 32 CURVE SMOOTH",
"252 23 OFFCURVE",
"304 -2 OFFCURVE",
"371 -2 CURVE",
"400 7 OFFCURVE",
"424 16 OFFCURVE",
"437 25 CURVE"
);
},
{
closed = 1;
nodes = (
"195 256 LINE",
"177 201 OFFCURVE",
"125 141 OFFCURVE",
"105 123 CURVE",
"81 133 OFFCURVE",
"54 152 OFFCURVE",
"33 167 CURVE",
"13 131 OFFCURVE",
"-18 51 OFFCURVE",
"-19 39 CURVE",
"-10 14 OFFCURVE",
"17 -3 OFFCURVE",
"46 -3 CURVE SMOOTH",
"63 -3 OFFCURVE",
"106 20 OFFCURVE",
"112 27 CURVE",
"157 67 OFFCURVE",
"235 200 OFFCURVE",
"235 249 CURVE"
);
},
{
closed = 1;
nodes = (
"257 208 LINE",
"260 235 OFFCURVE",
"314 326 OFFCURVE",
"341 354 CURVE",
"364 343 OFFCURVE",
"389 325 OFFCURVE",
"409 307 CURVE",
"429 335 OFFCURVE",
"462 426 OFFCURVE",
"463 438 CURVE",
"455 463 OFFCURVE",
"428 480 OFFCURVE",
"398 480 CURVE SMOOTH",
"382 480 OFFCURVE",
"338 456 OFFCURVE",
"333 450 CURVE",
"288 394 OFFCURVE",
"243 305 OFFCURVE",
"212 237 CURVE"
);
}
);
};
layerId = "71FD7A9F-05F5-4D76-8D4F-547475A05E4C";
name = "Regular Italic";
paths = (
{
closed = 1;
nodes = (
"400 62 OFFCURVE",
"420 101 OFFCURVE",
"429 135 CURVE",
"387 152 LINE",
"380 132 OFFCURVE",
"371 117 OFFCURVE",
"360 105 CURVE",
"315 99 OFFCURVE",
"231 92 OFFCURVE",
"164 139 CURVE",
"112 77 LINE",
"176 13 OFFCURVE",
"273 -34 OFFCURVE",
"364 17 CURVE"
);
},
{
closed = 1;
nodes = (
"35 418 OFFCURVE",
"22 362 OFFCURVE",
"13 328 CURVE",
"55 311 LINE",
"62 331 OFFCURVE",
"71 346 OFFCURVE",
"82 358 CURVE",
"127 364 OFFCURVE",
"206 380 OFFCURVE",
"273 333 CURVE",
"325 395 LINE",
"261 459 OFFCURVE",
"130 516 OFFCURVE",
"71 463 CURVE"
);
},
{
closed = 1;
nodes = (
"454 462 OFFCURVE",
"427 479 OFFCURVE",
"398 479 CURVE SMOOTH",
"375 479 OFFCURVE",
"338 455 OFFCURVE",
"332 449 CURVE",
"315 429 OFFCURVE",
"301 402 OFFCURVE",
"272 353 CURVE",
"236 294 OFFCURVE",
"192 222 OFFCURVE",
"159 170 CURVE SMOOTH",
"146 149 OFFCURVE",
"127 125 OFFCURVE",
"108 123 CURVE",
"84 133 OFFCURVE",
"54 152 OFFCURVE",
"33 167 CURVE",
"13 131 OFFCURVE",
"-18 51 OFFCURVE",
"-19 39 CURVE",
"-10 14 OFFCURVE",
"17 -3 OFFCURVE",
"46 -3 CURVE SMOOTH",
"63 -3 OFFCURVE",
"106 21 OFFCURVE",
"112 27 CURVE",
"129 42 OFFCURVE",
"148 62 OFFCURVE",
"167 86 CURVE",
"169 89 OFFCURVE",
"168 90 OFFCURVE",
"166 89 CURVE",
"181 101 OFFCURVE",
"210 140 OFFCURVE",
"217 151 CURVE SMOOTH",
"260 220 OFFCURVE",
"314 318 OFFCURVE",
"342 350 CURVE",
"365 340 OFFCURVE",
"392 323 OFFCURVE",
"411 309 CURVE",
"431 345 OFFCURVE",
"462 425 OFFCURVE",
"463 437 CURVE"
);
}
);
width = 447;
}
);
},
{
glyphname = y.004;
lastChange = "2015-11-15 20:53:44 +0000";
layers = (
{
background = {
paths = (
{
closed = 1;
nodes = (
"275 411 OFFCURVE",
"191 424 OFFCURVE",
"160 421 CURVE",
"148 370 LINE",
"176 363 OFFCURVE",
"190 355 OFFCURVE",
"192 280 CURVE SMOOTH",
"192 244 OFFCURVE",
"185 170 OFFCURVE",
"179 123 CURVE SMOOTH",
"155 -66 OFFCURVE",
"128 -157 OFFCURVE",
"96 -185 CURVE",
"81 -185 OFFCURVE",
"62 -180 OFFCURVE",
"35 -165 CURVE",
"18 -209 LINE",
"42 -229 OFFCURVE",
"74 -245 OFFCURVE",
"108 -251 CURVE",
"215 -225 OFFCURVE",
"256 -170 OFFCURVE",
"280 56 CURVE",
"293 190 OFFCURVE",
"317 370 OFFCURVE",
"315 394 CURVE"
);
},
{
closed = 1;
nodes = (
"310 483 OFFCURVE",
"269 475 OFFCURVE",
"257 457 CURVE",
"270 418 OFFCURVE",
"283 389 OFFCURVE",
"305 338 CURVE",
"370 368 LINE",
"367 303 OFFCURVE",
"324 153 OFFCURVE",
"255 65 CURVE",
"247 127 LINE SMOOTH",
"235 223 OFFCURVE",
"202 417 OFFCURVE",
"187 457 CURVE",
"175 468 OFFCURVE",
"46 484 OFFCURVE",
"33 477 CURVE",
"27 426 LINE",
"69 415 OFFCURVE",
"79 391 OFFCURVE",
"96 324 CURVE SMOOTH",
"110 267 OFFCURVE",
"126 173 OFFCURVE",
"139 33 CURVE",
"151 14 OFFCURVE",
"210 -13 OFFCURVE",
"307 -5 CURVE",
"403 117 OFFCURVE",
"465 317 OFFCURVE",
"465 444 CURVE",
"422 477 OFFCURVE",
"381 483 OFFCURVE",
"331 483 CURVE SMOOTH"
);
},
{
closed = 1;
nodes = (
"310 483 OFFCURVE",
"269 475 OFFCURVE",
"257 457 CURVE",
"270 418 OFFCURVE",
"283 389 OFFCURVE",
"305 338 CURVE",
"370 368 LINE",
"367 303 OFFCURVE",
"324 153 OFFCURVE",
"255 65 CURVE",
"247 127 LINE SMOOTH",
"235 223 OFFCURVE",
"202 417 OFFCURVE",
"187 457 CURVE",
"175 468 OFFCURVE",
"46 484 OFFCURVE",
"33 477 CURVE",
"27 426 LINE",
"69 415 OFFCURVE",
"79 391 OFFCURVE",
"96 324 CURVE SMOOTH",
"110 267 OFFCURVE",
"126 173 OFFCURVE",
"139 33 CURVE",
"151 14 OFFCURVE",
"210 -13 OFFCURVE",
"307 -5 CURVE",
"403 117 OFFCURVE",
"465 317 OFFCURVE",
"465 444 CURVE",
"422 477 OFFCURVE",
"381 483 OFFCURVE",
"331 483 CURVE SMOOTH"
);
}
);
};
layerId = "71FD7A9F-05F5-4D76-8D4F-547475A05E4C";
name = "Regular Italic";
paths = (
{
closed = 1;
nodes = (
"266 159 OFFCURVE",
"204 421 OFFCURVE",
"191 457 CURVE",
"179 468 OFFCURVE",
"44 484 OFFCURVE",
"31 477 CURVE",
"25 426 LINE",
"86 391 LINE",
"124 309 OFFCURVE",
"158 126 OFFCURVE",
"199 -56 CURVE",
"289 34 LINE",
"292 40 LINE"
);
},
{
closed = 1;
nodes = (
"427 467 OFFCURVE",
"398 474 OFFCURVE",
"343 484 CURVE",
"317 484 OFFCURVE",
"278 479 OFFCURVE",
"260 459 CURVE",
"274 416 OFFCURVE",
"283 391 OFFCURVE",
"304 344 CURVE",
"321 354 OFFCURVE",
"342 363 OFFCURVE",
"364 370 CURVE",
"370 271 OFFCURVE",
"320 154 OFFCURVE",
"274 55 CURVE SMOOTH",
"235 -29 OFFCURVE",
"128 -129 OFFCURVE",
"58 -153 CURVE",
"30 -136 OFFCURVE",
"-5 -110 OFFCURVE",
"-31 -86 CURVE",
"-49 -118 OFFCURVE",
"-64 -159 OFFCURVE",
"-82 -210 CURVE",
"-62 -231 OFFCURVE",
"8 -249 OFFCURVE",
"66 -250 CURVE",
"154 -230 OFFCURVE",
"250 -135 OFFCURVE",
"334 21 CURVE SMOOTH",
"430 198 OFFCURVE",
"467 382 OFFCURVE",
"465 447 CURVE"
);
}
);
width = 471;
}
);
leftMetricsKey = v;
rightMetricsKey = v;
},
